<svg xmlns="http://www.w3.org/2000/svg" viewBox="0 0 13.3 9.1"><defs><style>.cls-1{fill:#960101;}.cls-2{fill:#970303;}.cls-3{fill:#383435;}.cls-4{fill:#aaadb0;}.cls-5{fill:#afb2b5;}.cls-6{fill:#dad5d6;}.cls-7{fill:#b2b5b7;}.cls-8{fill:#990909;}.cls-9{fill:#babdbf;}.cls-10{fill:#c9cacc;}.cls-11{fill:#980404;}.cls-12{fill:#f7ecec;}.cls-13{fill:#f7f6f7;}.cls-14{fill:#fefefe;}.cls-15{fill:#970202;}</style></defs><g id="Camada_2" data-name="Camada 2"><g id="Camada_1-2" data-name="Camada 1"><g id="Camada_2-2" data-name="Camada 2"><g id="Camada_1-2-2" data-name="Camada 1-2"><path class="cls-1" d="M9.65,4.31H9v0l-.1-.18a1.24,1.24,0,0,0-.1-.2s0,0,0,0a0,0,0,0,0,0,0s0,0,0,0l-.1-.21h0a.05.05,0,0,0,0,0h0a.05.05,0,0,0,0,0h0a.05.05,0,0,0,0,0h0l0,0h0a.08.08,0,0,0,0,0h0l0,0h.49s0,0,0,0h.76a1.61,1.61,0,0,0,.22,0h.11a0,0,0,0,0,0,0,0,0,0,0,0,0,0h0a.05.05,0,0,0,0,0h0s0,0,0,0h0s0,0,0,0h0a0,0,0,0,0,0,0h0a0,0,0,0,0,0,0h0v0h0a0,0,0,0,1,0,0,0,0,0,0,1,0,0v0h0v0h0v0L10.36,4l-.08.14-.13.27h0l-.05.11h0l-.05,0h0l0,0h0s0,0,0,0a.28.28,0,0,0-.13,0H9.73s0,0,0,0h0Z"/><path class="cls-2" d="M6.59.34h0a.05.05,0,0,0,0,0L6.75.2a.1.1,0,0,0,0,0h0A.41.41,0,0,1,6.93.08.35.35,0,0,1,7.07,0a.15.15,0,0,1,.11,0h0l0,0h0l0,.06a.52.52,0,0,1,.06.16.88.88,0,0,1,0,.15,2,2,0,0,1,0,.24,1.25,1.25,0,0,1,0,.19s0,.07,0,.11a.76.76,0,0,1,0,.15v0a.29.29,0,0,1,0,.13v.15a.41.41,0,0,0,0,.11s0,.08,0,.12a1.37,1.37,0,0,1,0,.19c0,.08,0,.16,0,.24l-.06.24a2.41,2.41,0,0,1-.08.25,2.47,2.47,0,0,1-.1.29,1.19,1.19,0,0,1-.08.2l-.14.28v0h0v0c0-.09,0-.18.07-.27a0,0,0,0,0,0,0S7,3,7,3s.07-.17.1-.26l.09-.32c0-.08,0-.15.05-.23l0-.25c0-.05,0-.11,0-.16s0-.18,0-.27a.62.62,0,0,1,0-.13,1.84,1.84,0,0,0,0-.25A1.55,1.55,0,0,0,7.14.93.52.52,0,0,0,7,.75.17.17,0,0,0,7,.69l-.05,0a.28.28,0,0,0-.15,0A1,1,0,0,0,6.6.84L6.43,1a1,1,0,0,0-.15.2,1.59,1.59,0,0,0-.13.22c-.05.08-.09.16-.13.24L5.9,2v0h0a0,0,0,0,0,0,0,.14.14,0,0,0,0,.06l0,.11h0a.19.19,0,0,0,0,.08v0s0,0,0,0a.22.22,0,0,0,0,.08l0,.16s0,.08,0,.11a.49.49,0,0,0,0,.12.76.76,0,0,0,0,.15V3a.14.14,0,0,0,0,.09v.15a.11.11,0,0,0,0,.08v.15l0,0s0,0,0,0,0-.12,0-.18,0-.17,0-.25,0-.1,0-.14h0s0-.07,0-.11a.56.56,0,0,0,0-.13h0a.25.25,0,0,0,0-.12s0-.09,0-.13a1.55,1.55,0,0,1,0-.21c0-.1,0-.2.06-.31l.06-.2A2.81,2.81,0,0,1,6,1.36c0-.09.07-.17.12-.26L6.14,1,6.19.88A2.11,2.11,0,0,1,6.4.57s0,0,0,0h0s0,0,0,0L6.55.39l0,0S6.59.35,6.59.34Z"/><path class="cls-1" d="M5.65,7.35H4.77s0,0,0,0,.11-.21.16-.32.08-.16.12-.24l0,0,.06,0,.31-.22.15-.13.07,0,.11-.11L5.94,6A0,0,0,0,1,6,6s0,0,0,0H6a.13.13,0,0,0,0,0H6s0,0,0,.05H6s0,0,0,0h0l0,0h0s0,0,0,0h0l0,0h0s0,0,0,0h0l0,0h0s0,0,0,0h0l.12.24,0,0h0s0,0,0,0h0v0h0s0,0,0,0h0v0a0,0,0,0,0,0,0v0h0v0s0,0,0,0V7h0s0,0,0,0h0V7h0s0,0,0,0h0a.08.08,0,0,0,0,0h0l0,0h0a.08.08,0,0,0,0,0h0l0,0h0l0,0h0v0h-1Z"/><path class="cls-3" d="M6.1,8.37a.61.61,0,0,1,0,.27.69.69,0,0,1-.1.19.73.73,0,0,1-.38.24H5.34A.64.64,0,0,1,5,9l-.13-.1a1,1,0,0,1-.08-.11.77.77,0,0,1-.1-.29V8.39a.06.06,0,0,1,0-.06v0a.65.65,0,0,1,0-.2.45.45,0,0,1,.11-.19.62.62,0,0,1,.41-.24.55.55,0,0,1,.18,0,.89.89,0,0,1,.28.07A.84.84,0,0,1,6,7.89a.52.52,0,0,1,.1.18.8.8,0,0,1,0,.21Zm-.7.36.12,0a.52.52,0,0,0,.17-.12.4.4,0,0,0,.07-.28A.38.38,0,0,0,5.59,8a.3.3,0,0,0-.16,0,.29.29,0,0,0-.18,0,.39.39,0,0,0-.19.21.5.5,0,0,0,0,.12v.07l0,.1a.45.45,0,0,0,.1.13.24.24,0,0,0,.13.07Z"/><path class="cls-3" d="M4.38,8.53l.18.3a2.53,2.53,0,0,0,.13.22s0,0,0,0H4.39A.14.14,0,0,1,4.25,9s0-.05,0-.08l-.12-.21A.54.54,0,0,0,4,8.56a0,0,0,0,0,0,0H3.89s0,0,0,0v.49s0,0,0,0h-.3s0,0,0,0V7.73a.08.08,0,0,1,.08-.07h.63a.57.57,0,0,1,.18,0,.27.27,0,0,1,.12.09.35.35,0,0,1,.08.16.3.3,0,0,1,0,.13v.06a.47.47,0,0,1-.09.28.36.36,0,0,1-.16.11ZM4.08,8H3.91s0,0,0,0v.14s0,.06.07.06h.32a.12.12,0,0,0,.08-.06.17.17,0,0,0,0-.07.14.14,0,0,0,0-.07s0,0-.08,0Z"/><path class="cls-3" d="M12.11,8.4V7.73a.1.1,0,0,1,.09-.07h.64a.46.46,0,0,1,.2,0h0a.51.51,0,0,1,.17.3v.09a.59.59,0,0,1-.05.23.39.39,0,0,1-.19.17h0s0,0,0,0l.19.33.09.15h0s0,0,0,0h-.36a.1.1,0,0,1-.05,0l0-.09-.12-.21-.08-.17h-.13s0,0,0,0h0V9c0,.06,0,.05-.05.05h-.3V8.4Zm.56-.18h.16a.11.11,0,0,0,.11-.1h0a.13.13,0,0,0,0-.06.09.09,0,0,0-.1-.07h-.35s0,0,0,0v.19a0,0,0,0,0,0,0h.17Z"/><path class="cls-3" d="M8.6,9.07H8.28A.12.12,0,0,1,8.16,9l-.1-.17a2.54,2.54,0,0,0-.16-.28l-.07-.13,0,0s0,0,0,0v.63H7.44V7.73a.1.1,0,0,1,.08-.07h.27v.65l0,0h0l.1-.18A1.28,1.28,0,0,1,8,7.93l.08-.17,0-.06a.08.08,0,0,1,.07,0h.31s0,0,0,0a1,1,0,0,0-.08.14l-.13.24-.05.09-.09.18h0s0,0,0,0l.06.1.09.15a2.39,2.39,0,0,0,.13.21l.1.17Z"/><path class="cls-4" d="M5.87,5.69h0s0,0,0,0-.09.1-.14.14L5.55,6l0,0-.08.08h0l0,0H5.35a.39.39,0,0,1-.1.08v0h0a.1.1,0,0,0-.08,0h0l-.09.06v0h0a.12.12,0,0,0-.07,0H5l-.05,0-.1.06-.14.08-.15.08-.15.07-.09,0a.3.3,0,0,1-.08,0l-.06,0-.09,0-.14,0L3.82,7h0L3.68,7H3.59L3.52,7h0l-.15,0H3.3l-.12,0h-.8l-.16,0h0L2.39,7l.1,0,.13-.09.06,0h0a.1.1,0,0,1,.09,0h.93l.11,0h0l.15,0a1.43,1.43,0,0,0,.27-.09l.14,0,.09,0,.12,0,.15-.08.06,0A1.29,1.29,0,0,0,5,6.21l.08,0,.14-.09,0,0h0A.24.24,0,0,0,5.34,6h0a.08.08,0,0,0,.07,0h0a0,0,0,0,0,0,0h0l.06-.06s0,0,0,0l0,0s0,0,0,0h0l0,0h0l.08-.08.14-.14a.05.05,0,0,0,0,0l0,0s0,0,0,0,0,0,0,0H6a.43.43,0,0,0,.09-.1v0h0a0,0,0,0,0,0,0h0a.05.05,0,0,0,0,0s0-.05,0-.09h0A.11.11,0,0,0,6.26,5h0V5h0s0,0,0-.07h0a.11.11,0,0,0,.06-.07h0a.06.06,0,0,0,0,0h0l0,0s0,0,0-.05h0a.35.35,0,0,1,.05-.08l.07-.15,0,0v0h0l-.06.13a0,0,0,0,0,0,0,.56.56,0,0,0,0,.08s-.06.09-.08.14l-.06.1-.1.15s0,0,0,0h0a.1.1,0,0,0,0,.07h0s0,0-.06.07h0a.05.05,0,0,0,0,.06h0l-.06.09a0,0,0,0,0,0,0h0a.06.06,0,0,0,0,.06H6s0,0,0,0H6l0,0s0,0,0,.06h0S5.87,5.67,5.87,5.69Z"/><path class="cls-5" d="M6.67,4.22a0,0,0,0,1,0,0h0s0,0,0,0l0,.06-.11.16-.06.06-.12.16h0l-.13.14L6,5a3,3,0,0,1-.25.25.52.52,0,0,1-.11.1h0a.31.31,0,0,1-.11.09l-.14.11-.16.11L5,5.78l-.15.07-.14.07L4.54,6,4.41,6l-.09,0A1.53,1.53,0,0,1,4,6.14l-.16,0H3.42c-.15,0-.3,0-.45,0l-.17,0a.15.15,0,0,1-.09-.06l0,0L2.61,6a.49.49,0,0,0-.14-.11l-.14-.09-.15-.08a.36.36,0,0,1-.12-.08h.07l.17.05.2,0,.19,0,.21,0,.18,0,.19,0H3.8l.12,0h0l.13,0,.16,0h0l.2-.06.2-.07.22-.09.08,0a.66.66,0,0,0,.19-.09l.22-.12.26-.17.15-.11L6,4.93l.17-.15a.46.46,0,0,1,.07-.07l.12-.13.1-.12,0,0,.12-.16.07-.08s0,0,0,0h0l0,0v0l0,.05h0S6.66,4.21,6.67,4.22Z"/><path class="cls-3" d="M8.66,8.39V7.76s0,0,0-.06a.13.13,0,0,1,.07,0h.81s0,0,0,0l-.06.22a.06.06,0,0,1-.06,0H9.06C9,8,9,8,9,8v.16s0,0,0,0h.27a.11.11,0,0,1,.06.07.14.14,0,0,1,0,.06l0,.15H9a0,0,0,0,0,0,0V8.7s0,0,.05,0h.4a.11.11,0,0,1,.07.06c0,.08.05.16.07.24s0,0,0,0H8.71s-.05,0-.05,0Z"/><path class="cls-3" d="M6.17,8.36a.83.83,0,0,1,0-.22.79.79,0,0,1,.18-.29.4.4,0,0,1,.12-.1.81.81,0,0,1,.27-.11.71.71,0,0,1,.58.19h0a0,0,0,0,1,0,0L7.19,8a.1.1,0,0,1-.12,0L7,8,6.93,8h0a.36.36,0,0,0-.22,0,.34.34,0,0,0-.12.12.37.37,0,0,0-.07.27.36.36,0,0,0,.07.17.32.32,0,0,0,.12.11.21.21,0,0,0,.13.05h0l.11,0,.07,0a.12.12,0,0,1,.14,0l.06,0,.06.05.05,0a0,0,0,0,1,0,0A.61.61,0,0,1,7.2,9l-.13.06L7,9.09H6.85A.61.61,0,0,1,6.61,9a.57.57,0,0,1-.23-.15.81.81,0,0,1-.2-.39A.61.61,0,0,1,6.17,8.36Z"/><path class="cls-6" d="M6,6s0,0,0,0l-.16.16-.11.11-.07.06-.15.12-.31.22-.06,0,0,0H5l0,0,.07,0,0,0,.15-.1.16-.12.15-.12.21-.19.06-.06,0,0L6,6l.11-.13,0,0,.08-.1,0-.06.09-.13.08-.11a.75.75,0,0,0,.07-.12l0,0c0-.07.09-.15.14-.23s.12-.23.17-.35a1.92,1.92,0,0,0,.12-.25s0-.11.07-.17l0-.09,0-.11s0,0,0,0,0-.1.05-.14a.56.56,0,0,1,0-.12.14.14,0,0,1,0-.07.29.29,0,0,0,0-.09.14.14,0,0,0,0-.06s0-.07,0-.11a.07.07,0,0,1,0,0,.75.75,0,0,0,0-.16h0s0-.1,0-.15a.11.11,0,0,1,0-.05,1.16,1.16,0,0,0,0-.18c0-.06,0-.11,0-.17a1.55,1.55,0,0,1,0-.21h0s0-.09,0-.14l0-.16a1.62,1.62,0,0,1,0-.2v0s0,0,0-.07a.68.68,0,0,0,0-.14s0-.05,0-.08h0a.25.25,0,0,1,0-.12.28.28,0,0,1,0-.09.49.49,0,0,0,0-.12s0-.07,0-.11,0,0,0,0v0a.27.27,0,0,0,0-.09c0-.05,0-.1,0-.14h0c0-.06,0-.12,0-.17a.22.22,0,0,1,0-.08V.54s0,0,0,0,0,0,0-.07V.23a.25.25,0,0,0,0-.12v0h2.82l.15,0h0l.15,0h0l.12,0h0a.66.66,0,0,1,.15,0h0l.08,0,.11,0,.11,0,.06,0,.25.13.11.08L12,.57a1.54,1.54,0,0,1,.19.17l.08.1.08.11,0,.07a.76.76,0,0,1,.09.18s0,.05,0,.08a.36.36,0,0,1,0,.11h0a.47.47,0,0,1,0,.17s0,.05,0,.08,0,.06,0,.09V1.9a0,0,0,0,0,0,0V2a.15.15,0,0,0,0,.07.27.27,0,0,1,0,.09v0a.55.55,0,0,1,0,.18h0s0,.08,0,.12l0,.14a.14.14,0,0,0,0,.06,1.59,1.59,0,0,1-.07.2.19.19,0,0,1,0,.07l0,0a.84.84,0,0,1-.06.14l0,.07h0s0,.08-.07.12l-.07.11-.07.11-.1.12-.09.08-.09.09-.05,0a1.18,1.18,0,0,1-.19.11L11.5,4s0,0,0,0a1.13,1.13,0,0,1,.12.18l.09.16a.75.75,0,0,0,.07.12.59.59,0,0,1,0,.08l0,0a1.4,1.4,0,0,0,.09.17l.06.11a1.09,1.09,0,0,0,.08.15v0l.09.15a.25.25,0,0,0,0,.07.61.61,0,0,0,.07.14l.06.11s0,0,0,0a.8.8,0,0,1,.08.16l.08.15s0,.08.07.12l0,0,.09.16,0,.07.06.12.08.15v0a.61.61,0,0,1,.07.14.56.56,0,0,0,.05.08l.09.18.11.2,0,.06s0,.09.07.14H11.85s0,0-.07,0l-.06-.12-.06-.12A.75.75,0,0,0,11.59,7l0-.08,0,0-.21-.4-.07-.15a.16.16,0,0,1,0-.07l-.05-.09L11.08,6,11,5.89c-.06-.11-.13-.22-.19-.34l-.09-.14a.25.25,0,0,0,0-.07l-.06-.11-.07-.09s0-.08-.07-.11h0l-.08-.12-.11-.15a.1.1,0,0,1,0,0c0-.06-.12-.12-.18-.18l0,0s0,0,0,0h0l.05,0h0l0,0h0l.06.06.09.1a1.47,1.47,0,0,1,.1.13l.18.25,0,0s0,0,0,0,0,0,0,0,0,0,0,0a.56.56,0,0,1,.05.08l.13.2h0s0,0,0,0h0l.09.16.16.29.11.19h0s0,0,0,0v0l0,0a0,0,0,0,0,0,0,1.74,1.74,0,0,0,.1.19l.1.2c.05.08.08.17.13.25l.16.32.09.17s0,0,0,0h1.43l-.09-.16c0-.09-.09-.19-.14-.28l-.1-.19,0,0s0,0,0,0h0s0,0,0,0l0,0c0-.09-.09-.18-.14-.27s-.05-.11-.08-.17l-.06-.1s0,0,0,0l0-.06h0s0,0,0,0a1.62,1.62,0,0,0-.1-.18l-.06-.11-.06-.12v0h0s0,0,0,0h0l0,0,0-.05-.1-.19A1.62,1.62,0,0,1,12,5l-.09-.16h0s0,0,0,0v0l-.08-.15-.08-.14a2.53,2.53,0,0,0-.13-.22A2.39,2.39,0,0,0,11.45,4l.17-.07a1.66,1.66,0,0,0,.21-.16A1.07,1.07,0,0,0,12,3.59a1.42,1.42,0,0,0,.2-.28.64.64,0,0,0,.08-.14,0,0,0,0,0,0,0h0s0,0,0,0h0L12.39,3c0-.09.07-.18.09-.27a.58.58,0,0,0,0-.18l0,0a.13.13,0,0,1,0-.06.13.13,0,0,1,0-.06v0a.31.31,0,0,0,0-.08s0-.06,0-.09,0-.08,0-.12,0-.17,0-.26,0-.06,0-.09a.06.06,0,0,0,0,0v0s0,0,0-.06h0s0,0,0-.06,0,0,0-.05,0,0,0,0a.31.31,0,0,0,0-.1.08.08,0,0,1,0-.05A2.59,2.59,0,0,0,12.35,1,1.79,1.79,0,0,0,12.1.69h0s0,0,0,0a0,0,0,0,0,0,0v0l0,0L11.81.46a2.1,2.1,0,0,0-.3-.15L11.29.23,11.07.17l-.2,0h-.3l0,0a.65.65,0,0,0-.14,0H8.85s0,0,0,0v0c.05.09.09.18.14.28s.13.25.2.38l.12.25H10.6a0,0,0,0,0,0,0,.6.6,0,0,1,.24,0L11,1.2l.13.09.1.11s0,0,0,0a.76.76,0,0,1,.12.19l0,0a0,0,0,0,0,0,0h0l.05.12v.08a1.57,1.57,0,0,1,0,.23,1.06,1.06,0,0,1,0,.25.79.79,0,0,1-.05.22.8.8,0,0,1-.11.25.83.83,0,0,1-.2.22.61.61,0,0,1-.26.15l-.09,0H10.3a1.61,1.61,0,0,1-.22,0H8.8a.13.13,0,0,0,0-.06c0-.15,0-.3,0-.45s0-.43,0-.65V1.58c0-.1,0-.2,0-.3V1.1c0-.05,0-.05,0-.05h.44s0,0,0,0L9.14.76,9,.47,8.81.12v0H8.47l0,0s0,0,0,0h-.6s-.05,0-.05,0h0a1.28,1.28,0,0,1,0,.19V.47h0a.71.71,0,0,0,0,.14.62.62,0,0,0,0,.13h0a.49.49,0,0,0,0,.12s0,.07,0,.11a1,1,0,0,1,0,.17s0,.08,0,.12v.08a.22.22,0,0,0,0,.08s0,.09,0,.13,0,0,0,0a.19.19,0,0,0,0,.07v0h0s0,0,0,0,0,.06,0,.1L7.6,2c0,.09,0,.18,0,.27s0,.18,0,.28-.07.33-.1.49-.07.26-.1.39,0,.15-.08.23-.11.34-.17.51a0,0,0,0,0,0,0s0,0,0,0H7l-.08.18-.08.2c-.05.09-.1.18-.14.27l0,.05h0a.21.21,0,0,0,0,.06l0,0a1.74,1.74,0,0,0-.11.18l-.1.15v0h0s0,0,0,0h0l0,0,0,0-.13.17L6,6A0,0,0,0,0,6,6ZM8.87,3.19h1.48a.65.65,0,0,1,.14,0,.59.59,0,0,0,.19,0h.06l.1,0L11,3.13l.16-.1,0,0,.1-.1a1.74,1.74,0,0,0,.11-.18.5.5,0,0,0,.05-.13.5.5,0,0,0,0-.13l0-.11V2.28a1,1,0,0,0,0-.17.48.48,0,0,0,0-.12,0,0,0,0,1,0,0,.59.59,0,0,0-.05-.19.64.64,0,0,0-.08-.19.57.57,0,0,0-.08-.13.46.46,0,0,0-.12-.12.27.27,0,0,0-.08-.07.57.57,0,0,0-.13-.08l-.15-.05-.09,0-.11,0h0s0,0-.05,0H8.83s0,0,0,0v.1a0,0,0,0,0,0,0v.63a.07.07,0,0,1,0,0v1.2s0,0,0,0v0s0,0,0,0Z"/><path class="cls-3" d="M10.4,8.52v.53s0,0,0,0h-.29s0,0,0,0V8a0,0,0,0,0,0,0H9.67V7.75s0-.08.09-.09h1s0,0,0,0h0V8s0,0,0,0H10.4v.53Z"/><path class="cls-7" d="M1.53,7.9l-.06,0a.5.5,0,0,1-.24,0l-.14,0L.9,7.82a.39.39,0,0,0-.1-.08l0,0,0,0L.68,7.61.63,7.55a1.18,1.18,0,0,1-.11-.19,1,1,0,0,1-.08-.18l0-.1a.36.36,0,0,1,0-.1,1,1,0,0,1,0-.3.77.77,0,0,1,0-.15s0-.07,0-.11,0,0,0,0a.06.06,0,0,0,0,0l-.06,0L.28,6.2a.49.49,0,0,1-.11-.14A1.22,1.22,0,0,1,.1,5.89a.57.57,0,0,1,0-.18.37.37,0,0,1,0-.11.57.57,0,0,1,0-.18.93.93,0,0,1,.12-.27,0,0,0,0,0,0,0l0,0s0,0,0,0h0s0,0,0,0h0a.47.47,0,0,1,0-.1s0-.06,0-.1,0-.06,0-.09h0s0-.06,0-.09a.35.35,0,0,1,0-.11l.06-.09.05-.07a.71.71,0,0,1,.14-.1h0l.11,0,.09,0h0a.5.5,0,0,0-.17,0l-.09,0-.15.09h0l0,0a.42.42,0,0,1,.13-.07l.08,0H.67l.13,0,0,0s0,0,0,0h0a.45.45,0,0,0-.16,0,.4.4,0,0,1-.11,0l-.08,0a.44.44,0,0,0-.17.08h0a.66.66,0,0,0-.15.19.38.38,0,0,0,0,.13.28.28,0,0,0,0,.09.45.45,0,0,0,0,.2.8.8,0,0,0,.08.16h0l0,0L.35,5l.1-.09a.56.56,0,0,1,.19-.09h0v0l-.07,0L.49,5,.43,5l-.09.13a.54.54,0,0,0-.05.11,1.05,1.05,0,0,0,0,.19v0a.67.67,0,0,0,0,.2.22.22,0,0,0,0,.08A.86.86,0,0,0,.32,6l.12.18s0,0,0,0,0,0,0,0l0-.05A.53.53,0,0,1,.71,6L.82,6l0,0-.09.09-.06.06a.59.59,0,0,0-.12.22v0a.07.07,0,0,0,0,0,.43.43,0,0,1,0,0,1.32,1.32,0,0,0,0,.28s0,.07,0,.1A.36.36,0,0,0,.52,7a1.4,1.4,0,0,0,.09.29l.08.13.1.15a.68.68,0,0,0,.12.12L1,7.75a.84.84,0,0,0,.21.11l.18,0h.16Z"/><path class="cls-3" d="M12.05,8.08v.34a1.27,1.27,0,0,1,0,.28.89.89,0,0,1-.08.17l-.07.06a.7.7,0,0,1-.29.13h-.22V8.82a.1.1,0,0,1,.07-.07l.12,0h0a.2.2,0,0,0,.12-.18,1.62,1.62,0,0,0,0-.22V7.76a.06.06,0,0,1,0,0,.08.08,0,0,1,.08-.06H12s0,0,0,0v.39Z"/><path class="cls-5" d="M3.05,6.63H2.86s0,0,0,0,0,0,0,0a.49.49,0,0,0,0-.12s0,0,0,0h.48l.18,0h0l.13,0,.16,0L4,6.3l.18,0,.09,0,.28-.1.16-.07L5,5.93l.18-.1.15-.1,0,0,.16-.12.16-.13.1-.08a.73.73,0,0,0,.09-.08l.22-.22L6.13,5h0s0,0,0,0-.09.11-.13.16l-.25.25-.16.15-.08.07-.16.12-.13.1L5,6a.82.82,0,0,1-.2.12l-.14.08-.15.07-.07,0-.27.11L4,6.48l-.15,0-.22,0-.23,0-.12,0H3.05Z"/><path class="cls-5" d="M2.66,5.07v.1a.17.17,0,0,1,0,.07s0,.07,0,.11l0,.09s0,0,0,0h0s0,0,0,0l0-.08a1.38,1.38,0,0,0,0-.2h0a1.1,1.1,0,0,0,0-.18l-.06-.17a.82.82,0,0,0-.2-.25.72.72,0,0,0-.19-.11l-.1,0H1.71l-.09,0-.11,0h0s0,0,0,0l0,0,.14-.07.17,0h0s0,0,0,0a.56.56,0,0,0-.11-.2.69.69,0,0,0-.2-.13h0a.25.25,0,0,0-.12,0H1.26A.72.72,0,0,0,1,4L1,4h0V4a.43.43,0,0,1,.11-.12.56.56,0,0,1,.17-.09l.1,0h.14l.17.05.15.1L1.88,4s0,.05,0,.07a.45.45,0,0,1,0,.11.24.24,0,0,0,0,.08s0,0,0,0l.15,0,.07,0,.12.07a.83.83,0,0,1,.17.15.44.44,0,0,1,.08.11l0,.07,0,.11s0,0,0,.06,0,0,0,.08v.07Z"/><path class="cls-8" d="M6.29,4a2.38,2.38,0,0,1,0,.26.86.86,0,0,1-.12.3A1,1,0,0,1,6,4.63a1,1,0,0,1-.19.16s0,0,0,0a1.25,1.25,0,0,1-.07-.26,1.41,1.41,0,0,1,0-.2.85.85,0,0,1,0-.24.72.72,0,0,1,.12-.25h0l.07,0,.28.09h0s0,0,0,0Zm-.42.68,0,0L6,4.53a.56.56,0,0,0,.11-.2.89.89,0,0,0,.07-.28s0,0,0,0h0L6,3.94s0,0,0,0l0,.06a1.38,1.38,0,0,0-.08.29.56.56,0,0,0,0,.13.75.75,0,0,0,0,.15.14.14,0,0,0,0,.06Z"/><path class="cls-5" d="M1.46,6.13h0A.65.65,0,0,1,1.29,6a.36.36,0,0,1,0-.2.49.49,0,0,1,0-.12.57.57,0,0,1,.11-.22l.13-.13.07,0,.08,0a.28.28,0,0,1,.13,0,.79.79,0,0,1,.2,0l.07,0a.28.28,0,0,1,.1.09H2.09l-.15,0H1.85a.41.41,0,0,0-.22.07l-.11.08-.05,0a.6.6,0,0,0-.08.16.62.62,0,0,0,0,.13.58.58,0,0,0,0,.19Z"/><path class="cls-8" d="M6.7,4.11l0,0V3.89s0,0,0,0h0V3.77s0,0,0,0h0l-.06-.06h0l-.06,0-.06-.07h0a0,0,0,0,0,0,0h0a0,0,0,0,0,0,0h0a0,0,0,0,0,0,0h0l0,0v0h0a.83.83,0,0,0,0-.15s0,0,0-.06h0l0-.16c0-.12.06-.24.08-.37s0,0,0,0l.07.06.09.09h0a.12.12,0,0,0,0,0h0a.46.46,0,0,0,.07.07h0a0,0,0,0,0,0,0h0a0,0,0,0,0,0,0h0s0,0,0,0h0L6.89,3a0,0,0,0,0,0,0l0,0a0,0,0,0,0,0,0H7v0a.43.43,0,0,1,0,.05c0,.1,0,.2-.08.29v0a.19.19,0,0,0,0,.07s0,0,0,0h0s0,0,0,0h0a0,0,0,0,0,0,0h0a0,0,0,0,0,0,0c0,.09,0,.18-.08.27a1.94,1.94,0,0,1,0,.2s0,0,0,0Zm0-.15a.11.11,0,0,0,0-.07c0-.13.07-.26.11-.39l.06-.25a1,1,0,0,0,0-.14s0,0,0,0l0,0-.28-.28L6.5,2.67l0,0s0,0,0,0,0,.06,0,.09A2.07,2.07,0,0,1,6.4,3a2,2,0,0,1-.05.24s0,.09,0,.13a0,0,0,0,0,0,0l.16.1.17.1,0,0v.12s0,.08,0,.12V4Z"/><path class="cls-9" d="M3.29,7.71l0,0a.31.31,0,0,1-.13.06l-.06,0s0,0,0,0a.17.17,0,0,1,0,.07A.55.55,0,0,1,3,8.09l-.07.09h0a.49.49,0,0,1-.23.14.32.32,0,0,1-.14,0H2.42l-.11,0a.51.51,0,0,1-.16-.09A.66.66,0,0,1,2,8.05a.61.61,0,0,1,0-.12s0-.07,0-.1,0,0,0-.07,0,0,0,0l0,.1A1.09,1.09,0,0,0,2.1,8l.06.06a.42.42,0,0,0,.14.09.67.67,0,0,0,.24,0H2.6a.58.58,0,0,0,.22-.08l.07-.06,0,0A.48.48,0,0,0,3,7.84s0,0,0,0H2.85l-.1,0-.12-.08h0a.41.41,0,0,0,.22,0H3l.09,0a.36.36,0,0,0,.12-.08s0,0,.06,0v0l-.11.09A.35.35,0,0,1,3,7.73l-.15,0a.25.25,0,0,1-.12,0h0l.1,0H3a.57.57,0,0,0,.13,0,.51.51,0,0,0,.17-.07Z"/><path class="cls-7" d="M1.85,7.28h0a.37.37,0,0,0,.23,0l0,0h0s0,0-.06.07A.51.51,0,0,1,2,7.36l-.13,0H1.75l-.2,0a.5.5,0,0,1-.19-.13l-.08-.09-.06-.1a.57.57,0,0,1,0-.26.79.79,0,0,1,.06-.22.36.36,0,0,1,.1-.14h0s0,0,0,0a.61.61,0,0,0-.05.18.49.49,0,0,0,0,.17.06.06,0,0,0,0,0,.74.74,0,0,0,0,.14.61.61,0,0,0,.07.1.45.45,0,0,0,.1.09.35.35,0,0,0,.12.07.44.44,0,0,0,.2,0Z"/><path class="cls-8" d="M5.23,2.73h0a.18.18,0,0,0,.07-.05h0a.1.1,0,0,0,.05,0h0s0,0,0,0h0a.05.05,0,0,0,.05,0h0l0,0h0s0,0,0,0h0a0,0,0,0,0,0,0h0l0,0,.08-.06h0v0s0,.08,0,.12a.56.56,0,0,0,0,.13h0a.13.13,0,0,0,0,.06s0,0,0,.07a.48.48,0,0,0,0,.12h0a.13.13,0,0,0,0,.06s0,0,0,.07a.28.28,0,0,1,0,.09h0s0,0,0,0h0l-.08,0-.34.21a.12.12,0,0,0,0,0l-.05.07h0A.83.83,0,0,1,5,3.74v0H5l0,0h0a0,0,0,0,1,0,0v0c0-.11,0-.22.08-.33l.08-.33.07-.31s0,0,0,0h0S5.21,2.74,5.23,2.73Zm-.11.73a.2.2,0,0,0,.06-.07l0,0,.07,0,.26-.15s0,0,0,0,0,0,0-.05A.49.49,0,0,1,5.6,3a.17.17,0,0,1,0-.07.76.76,0,0,0,0-.15.28.28,0,0,0,0-.09.28.28,0,0,0,0-.09v0l0,0-.21.13-.17.11,0,0a.29.29,0,0,1,0,.09l-.07.26L5,3.62v0l.07-.09,0,0a.43.43,0,0,0,0-.07Z"/><path class="cls-9" d="M5.65,7.35h1s0,0,.07,0H9V6.69H9V5.51s0,0,0,0H9v0H9V4.35a.07.07,0,0,1,0,0s0,0,0,0H9a0,0,0,0,0,0,0v3s0,0,0,0H5.66S5.65,7.36,5.65,7.35Z"/><path class="cls-9" d="M5.61,3.21a.28.28,0,0,0,0-.09s0-.05,0-.07a.13.13,0,0,1,0-.06h0a.48.48,0,0,1,0-.12s0,0,0-.07V2.73h0s0-.08,0-.12,0-.08,0-.12v0h0s0,0,0-.06,0-.06,0-.09a.06.06,0,0,1,0,0l0-.17s0,0,0-.08l0-.15,0-.12,0-.14a1.21,1.21,0,0,1,0-.14A.52.52,0,0,1,6,1.28s0-.09,0-.13L6.09,1,6.18.86,6.24.77,6.33.63l0-.05s0,0,0,0,0,0,0,0a3.37,3.37,0,0,0-.21.31L6.14,1l-.06.12L6,1.36a2.81,2.81,0,0,0-.1.31l-.06.2c0,.11,0,.21-.06.31a1.55,1.55,0,0,0,0,.21.57.57,0,0,0,0,.13.5.5,0,0,1,0,.12h0a.56.56,0,0,1,0,.13s0,.08,0,.11h0s0,.09,0,.14,0,.16,0,.25,0,.12,0,.18l0,0,0,0s0,0,0,0V3.36a.11.11,0,0,1,0-.08h0c0,.07,0,.14,0,.2s0,0,0,0h.08l.09,0,.1,0,.12,0,.12,0,.11,0,.1,0,.11,0h0s0,0,0,0h0v0s0,0,0,0,0,0,0,.07h0l-.11,0h0l-.13,0h0s-.05,0-.07,0H6.22l-.12,0h0L6,3.62s0,0,0,0h0s0,0,0,0l-.06,0h0s0,0,0,0h0v0h0a.07.07,0,0,1,0,0s0,0,0,0a.5.5,0,0,0-.13,0,0,0,0,0,1,0,0h0v0s0,0,0,0,0-.05,0-.08V3.26S5.62,3.23,5.61,3.21Z"/><path class="cls-4" d="M3.29,7.71h0a.51.51,0,0,1-.17.07A.57.57,0,0,1,3,7.8h-.1l-.1,0h0a.25.25,0,0,0,.12,0,.39.39,0,0,0,.15,0,.35.35,0,0,0,.14-.06l.11-.09s0,0,0,0h0a.2.2,0,0,0,0-.08.42.42,0,0,0,0-.1.14.14,0,0,0,0-.06s0-.07,0-.11h0s.05,0,.06,0v.15s0,.08,0,.11v0a0,0,0,0,1,0,0h0a.33.33,0,0,1-.11.13s0,0,0,0Z"/><path class="cls-9" d="M6.85,3.54a0,0,0,0,1,0,0,.07.07,0,0,1,0-.06h0s0,0,0,0h0v0h0l.14-.28a1.67,1.67,0,0,0,.08-.2,2.47,2.47,0,0,0,.1-.29,2.41,2.41,0,0,0,.08-.25l.06-.24c0-.08,0-.16,0-.25a1.1,1.1,0,0,0,0-.18s0-.08,0-.12a.49.49,0,0,1,0-.12V1.31a.33.33,0,0,0,0-.14v0a.76.76,0,0,0,0-.15s0-.08,0-.11a1.08,1.08,0,0,0,0-.19,2,2,0,0,0,0-.24c0-.05,0-.11,0-.15A.44.44,0,0,0,7.27.15l0-.06h0s0,0,0,0a.47.47,0,0,1,.06.09,2.58,2.58,0,0,1,.08.26c0,.09,0,.17.07.26h0a.59.59,0,0,0,0,.13s0,.07,0,.11,0,0,0,.05h0s0,.09,0,.14v.15a.28.28,0,0,1,0,.09v.11a.25.25,0,0,0,0,.08.31.31,0,0,1,0,.1s0,.07,0,.11,0,.07,0,.11l0,.17v0a2.81,2.81,0,0,1-.08.31.32.32,0,0,1,0,.09l0,.11-.06.17L7.14,3s0,.08,0,.13l-.15.29-.06.14S6.87,3.54,6.85,3.54Z"/><path class="cls-4" d="M.72,4.2H.58l-.09,0-.11,0h0a.49.49,0,0,0-.14.11s0,0-.05.06a.41.41,0,0,0,0,.09.21.21,0,0,0,0,.11s0,.06,0,.09h0s0,.06,0,.09l0,.1a.42.42,0,0,0,0,.1h0s0,0,0,0h0a.08.08,0,0,0,0,0l0-.06a.24.24,0,0,1,0-.08s0-.08,0-.11v0s0-.06,0-.09A.35.35,0,0,1,.1,4.41a.05.05,0,0,0,0,0h0s0,0,0,0h0a0,0,0,0,1,0,0h0L.36,4.2l.1,0a.47.47,0,0,1,.17,0H.72Z"/><path class="cls-10" d="M2.68,6.8h0l-.06,0-.13.09-.1,0-.16.06h0l.17,0h.79l.12,0h.05L3.5,7h0l.07,0h.09l.09,0h0l.11,0,.14,0,.09,0,.06,0s.06,0,.08,0l.09,0,.15-.07.15-.08.14-.08.1-.06.05,0a.1.1,0,0,1-.05,0l-.24.14-.18.09-.14.07-.08,0-.11,0-.12,0L3.85,7,3.61,7l-.12,0-.16,0H2.45l-.15,0H2.16s0,0,0,0L2.3,7l.11,0,.06,0,.15-.11Z"/><path class="cls-9" d="M3.46,7.5v0s0-.07,0-.11V7.21s0,0-.06,0h0s0,.07,0,.11a.14.14,0,0,1,0,.06.42.42,0,0,1,0,.1.3.3,0,0,1,0,.08h0s0,0,0,0a.24.24,0,0,0,.06-.11.56.56,0,0,0,0-.12V7.17s0,0,0,0h.09a.43.43,0,0,1,0,.16h0l.13,0,.17,0h0l-.17.05H5.2a0,0,0,0,1,0,0H3.54a0,0,0,0,0,0,0,.16.16,0,0,1,0,.09S3.47,7.49,3.46,7.5Z"/><path class="cls-11" d="M4.74,6.94v0l0,0h0l.06,0s0,0,0,0h0l0,0H5c0,.06-.07.13-.1.2a1.19,1.19,0,0,0-.08.16l-.07.12h0V6.94Z"/><path class="cls-10" d="M5.23,6.05l0,0-.14.09L5,6.21l-.16.09-.06,0-.14.08-.13,0-.08,0-.15,0A1.43,1.43,0,0,1,4,6.64l-.15,0h0l-.11,0H2.8a.1.1,0,0,0-.09,0h0a.13.13,0,0,1,.09,0h.68l.1,0h.09l.21,0,.21-.06.3-.11.17-.07.14-.06L4.8,6.3c.08,0,.17-.09.25-.15l.09-.05.05,0A.05.05,0,0,1,5.23,6.05Z"/><path class="cls-12" d="M4.75,7.28l.07-.12A1.19,1.19,0,0,1,4.9,7c0-.07.07-.14.1-.2v0l0,0c0,.08-.07.16-.12.24s-.1.21-.16.32,0,0,0,0H4.68s0,0,0,0L4.53,7h0l.1.19,0,.07h0V7l0,0h0V7.3h0Z"/><path class="cls-6" d="M6.22,3.71h0v0l0,.08s0,0,0,0l.08,0s0,0,0,0a.54.54,0,0,1,.05-.11h0a.31.31,0,0,1,0,.1s0,0,0,0h0s.06,0,.08,0l0-.08h0l-.06.12s0,0,0,0H6.3l-.18-.06-.18-.06-.14,0h0V3.66s0,0,0,0h0a.06.06,0,0,1,0,.06s0,0,0,0h0s0,0,0,0a.06.06,0,0,0,0,0s0,0,0-.06H6a.09.09,0,0,1,0,.05v0s0,0,0,0a.19.19,0,0,0,.08,0,.35.35,0,0,0,0-.14h0l0,.11s0,0,0,0h0s0,0,0,0,0,0,0,0Z"/><path class="cls-8" d="M4.7,7v.33h0l0-.07A1.74,1.74,0,0,1,4.56,7s0,0,0,0h0l.05,0h0Z"/><path class="cls-10" d="M6.29,5.11s0,0,0,0l.09-.14.06-.1a.71.71,0,0,0,.08-.15l0-.07s0,0,0,0l.06-.12h0s0,0,0,0a0,0,0,0,0,0,0,1.09,1.09,0,0,0-.08.15.56.56,0,0,0-.05.08h0s0,0,0,0a1.19,1.19,0,0,0,.09-.15l.1-.17h0a0,0,0,0,1,0,0c0,.09-.07.18-.11.26l-.09.15L6.37,5l-.06.1Zm.39-.72Z"/><path class="cls-10" d="M5.15,2.78a0,0,0,0,0,0,0c0,.1,0,.21-.08.32L5,3.45c0,.11,0,.22-.08.33v0a0,0,0,0,0,0,0h0l0,0H5a.06.06,0,0,1,0,0l-.07.09h0a.83.83,0,0,0,0-.15.58.58,0,0,0,0-.14v0a.85.85,0,0,0,0-.17,1,1,0,0,0,0-.17.94.94,0,0,0,0-.16c0-.05,0-.11,0-.16a.36.36,0,0,1,0-.11s0,0,0,0Z"/><path class="cls-7" d="M.13,4.36a.09.09,0,0,1,0,0A.51.51,0,0,0,0,4.58s0,.06,0,.09v0s0,.07,0,.11a.24.24,0,0,0,0,.08A.21.21,0,0,0,.1,5a.08.08,0,0,1,0,0l0,0L0,4.88l0-.14a.45.45,0,0,1,0-.11.11.11,0,0,1,0,0,.5.5,0,0,1,.08-.2Z"/><path class="cls-5" d="M3.87,7.27h0l.16,0,.11,0,.15,0,0,0,.1,0h0l-.15.06L4,7.25Z"/><path class="cls-10" d="M5.06,3.62a.35.35,0,0,1,.05-.08.12.12,0,0,1,0,0l.34-.21.08,0h0v0l-.1.06-.1.07-.08,0-.15.09s0,0,0,0l0,.06Z"/><path class="cls-10" d="M5.43,6.13h0L5.51,6l0,0,.13-.14c.05,0,.09-.1.14-.14s0,0,0,0,0,0,0,0-.2.22-.31.32l-.08.07Z"/><path class="cls-9" d="M7.2.05h0a.15.15,0,0,0-.11,0,.35.35,0,0,0-.14.06.41.41,0,0,0-.11.07h0v0l0,0L7,0a.47.47,0,0,1,.17,0l.07,0A0,0,0,0,1,7.2.05Z"/><path class="cls-10" d="M5.91,5.45a.05.05,0,0,1,0,0l-.14.14-.07.08h0l0,0,.22-.22Z"/><path class="cls-9" d="M6.59.34s0,0,0,0l0,0L6.43.53a0,0,0,0,1,0,0,0,0,0,0,1,0,0A1.14,1.14,0,0,1,6.57.35Z"/><path class="cls-9" d="M6.8.16a.1.1,0,0,1,0,0L6.64.31a.05.05,0,0,1,0,0s0,0,0,0L6.77.17Z"/><path class="cls-9" d="M3.29,7.71s0,0,0,0a.36.36,0,0,0,.11-.14h0l0,0a.43.43,0,0,1-.13.14Z"/><path class="cls-5" d="M4.65,7s0,0-.05,0h0a0,0,0,0,0,0,0H4.45a.05.05,0,0,1,0,0h0s.07,0,.1,0Z"/><path class="cls-7" d="M9.8,4.34a.28.28,0,0,1,.13,0s0,0,0,0h0s0,0,0,0h0l-.05,0h0Z"/><path class="cls-10" d="M5.25,6.28v0a.39.39,0,0,0,.1-.08h0v0l-.11.09Z"/><path class="cls-10" d="M5,3.76v0l.08-.12h0s0,0,0,0L5,3.74S5,3.76,5,3.76Z"/><path class="cls-10" d="M6.08,5.25v0a.43.43,0,0,1-.09.1H6a.39.39,0,0,1,.08-.1Z"/><path class="cls-10" d="M6.2,5.1s0,.06,0,.09,0,0,0,0h0l.08-.1Z"/><path class="cls-9" d="M6.65,3.85s0,0,0,0v.24h0V3.85Z"/><path class="cls-10" d="M5.05,6.42v0l.09-.06h0v0l-.08.06Z"/><path class="cls-10" d="M5.56,5.8l0,0-.06.06h0l.06-.06Z"/><path class="cls-10" d="M5.66,2.44l-.08.05,0,0,0,0,.07-.05Z"/><path class="cls-10" d="M6.06,5.45v0l.07-.09h0a0,0,0,0,1,0,0l0,.06S6.07,5.45,6.06,5.45Z"/><path class="cls-10" d="M5.34,6h0A.24.24,0,0,1,5.25,6h0a.08.08,0,0,1,0,0A.09.09,0,0,1,5.34,6Z"/><path class="cls-6" d="M5,6.8H5s0,0,0,0h0l0,0h0l.08,0H5Z"/><path class="cls-10" d="M6.5,4.68s0,0,0,.05l0,0h0A.23.23,0,0,1,6.5,4.68Z"/><path class="cls-10" d="M5.91,5.64s0,0,0-.06l0,0s0,0,0,.06Z"/><path class="cls-10" d="M6.4,4.83s0,.07-.06.08a.18.18,0,0,1,0-.07Z"/><path class="cls-10" d="M6.18,5.27a.11.11,0,0,1,.06-.07s0,0,0,.07Z"/><path class="cls-10" d="M5.42,5.91a.08.08,0,0,1-.07,0A.13.13,0,0,1,5.42,5.91Z"/><path class="cls-10" d="M5.17,6.34h0a.14.14,0,0,1,.08,0A.16.16,0,0,1,5.17,6.34Z"/><path class="cls-10" d="M6.26,5a.11.11,0,0,1-.06.07h0S6.23,5,6.26,5Z"/><path class="cls-10" d="M5,6.47s0,0,.07,0A.08.08,0,0,1,5,6.47Z"/><path class="cls-10" d="M6.34,4.91a.08.08,0,0,1,0,.07A.18.18,0,0,1,6.34,4.91Z"/><path class="cls-10" d="M5.31,2.67a.18.18,0,0,1-.07.05h0s0,0,0,0S5.3,2.66,5.31,2.67Z"/><path class="cls-10" d="M6.24,5.19a.1.1,0,0,1,0-.07h0A.12.12,0,0,1,6.24,5.19Z"/><path class="cls-10" d="M6,5.51s0,0,0-.06S6,5.5,6,5.51Z"/><path class="cls-10" d="M6.14,5.34a.05.05,0,0,1,0-.06A.08.08,0,0,1,6.14,5.34Z"/><path class="cls-6" d="M9.55,4.31h0S9.55,4.32,9.55,4.31Z"/><path class="cls-10" d="M5.23,2.73l-.07,0h0A0,0,0,0,1,5.23,2.73Z"/><path class="cls-5" d="M4.86,6.87l-.06,0s0,0,0,0l0,0Z"/><path class="cls-5" d="M4.8,6.9l0,0s0,0,0,0Z"/><path class="cls-10" d="M6.43,4.78a.06.06,0,0,1,0,0h0A.05.05,0,0,1,6.43,4.78Z"/><path class="cls-5" d="M4.7,7h0v0h0s0,0,0,0Z"/><path class="cls-10" d="M5.51,2.53a.05.05,0,0,1,0,0v0Z"/><path class="cls-10" d="M5.36,2.63a.1.1,0,0,1-.05,0v0Z"/><path class="cls-10" d="M5.44,2.58a.1.1,0,0,1-.05,0,0,0,0,0,1,0,0Z"/><path class="cls-10" d="M5.61,5.75s0,0,0,0h0A.05.05,0,0,1,5.61,5.75Z"/><path class="cls-7" d="M10,4.41l0,0s0,0,0,0Z"/><path class="cls-10" d="M5.87,5.69a0,0,0,0,1,0,0h0Z"/><path class="cls-7" d="M.16,4.32s0,0,0,0h0S.14,4.33.16,4.32Z"/><path class="cls-7" d="M.11,5s0,0,0,0A0,0,0,0,1,.11,5Z"/><path class="cls-6" d="M4.86,6.87h0l0,0h0S4.87,6.87,4.86,6.87Z"/><path class="cls-10" d="M6,5.39a0,0,0,0,1,0,0A0,0,0,0,1,6,5.39Z"/><path class="cls-10" d="M5.46,5.88s0,0,0,0S5.44,5.88,5.46,5.88Z"/><path class="cls-10" d="M6.11,5.22a0,0,0,0,1,0,0Z"/><path class="cls-4" d="M6.67,4.22s0,0,0,0h0Z"/><path class="cls-10" d="M6,5.55a0,0,0,0,1,0,0,0,0,0,0,1,0,0Z"/><path class="cls-9" d="M9.6,4.31h0S9.62,4.32,9.6,4.31Z"/><path class="cls-9" d="M9.69,4.32s0,0,0,0h0Z"/><path class="cls-9" d="M9.65,4.31h0S9.66,4.33,9.65,4.31Z"/><path class="cls-5" d="M5,6.8v0H5v0Z"/><path class="cls-10" d="M5.54,2.51s0,0,0,0S5.52,2.51,5.54,2.51Z"/><path class="cls-10" d="M5.46,2.56l0,0S5.44,2.56,5.46,2.56Z"/><path class="cls-6" d="M9.91,4.39s0,0,0,0S9.91,4.4,9.91,4.39Z"/><path class="cls-10" d="M5.39,6.16h0S5.4,6.17,5.39,6.16Z"/><path class="cls-10" d="M5.39,2.61l0,0S5.37,2.61,5.39,2.61Z"/><path class="cls-10" d="M6.29,5h0Z"/><path class="cls-10" d="M6.27,5s0,0,0,0h0s0,0,0,0Z"/><path class="cls-4" d="M6.83,3.61a0,0,0,0,1,0,0A0,0,0,0,1,6.83,3.61Z"/><path class="cls-5" d="M4.89,6.84h0Z"/><path class="cls-9" d="M6.85,3.56v0S6.86,3.55,6.85,3.56Z"/><path class="cls-5" d="M4.66,7s0,0,0,0h0Z"/><path class="cls-4" d="M6.84,3.58a0,0,0,0,1,0,0s0,0,0,0Z"/><path class="cls-5" d="M6.7,4.09h0Z"/><path class="cls-10" d="M5.24,2.72h0Z"/><path class="cls-10" d="M5.16,2.77Z"/><path class="cls-9" d="M5.6,3.22h0a0,0,0,0,1,0,0Z"/><path class="cls-7" d="M10,4.45h0Z"/><path class="cls-5" d="M2.06,5.67h0Z"/><path class="cls-5" d="M4.67,7h0Z"/><path class="cls-7" d="M1.53,7.9Z"/><path class="cls-9" d="M9.8,4.34Z"/><path class="cls-9" d="M9.76,4.33h0Z"/><path class="cls-13" d="M6.71,7.37H6.64v0h0s0,0,0,0h0l0,0h0s0,0,0-.05h0l0,0h0s0,0,0,0h0v0h0s0,0,0,0h0V7h0s0,0,0,0h0V7h0v0h0v0h0v0h0s0,0,0,0h0v0h0v0h0l0,0-.12-.24h0s0,0,0,0h0l0,0h0s0,0,0,0h0l0,0h0s0,0,0,0h0l0,0h0l0,0H6A.08.08,0,0,1,6,6.1H6l0,0H6L6,6,6,6s0,.09.08.14l.14.27.18.35A2.12,2.12,0,0,0,6.49,7l.16.33h0V5.49s0,0,0,0H6.39a0,0,0,0,1,0,0h.25v-.4l0,0v.41s0,0,0,0,0,0,0,0h.89a.31.31,0,0,1,0-.1l0,0h0a.05.05,0,0,1,0,0h0s0,0,0,0h0a.05.05,0,0,1,0,0h0s0,0,0,0h0a.35.35,0,0,1,0-.08h0l0,0h0s0,0,0,0h0a.08.08,0,0,1,0,0h0s0,0,0,0h0a.25.25,0,0,1,0-.07h0s0,0,0,0h0l0,0h0l0,0h0l0,0h0s0,0,0,0h0l0,0L7,4.29H7a0,0,0,0,1,0,0v0a2.44,2.44,0,0,1,.14.28.83.83,0,0,1,.07.13h0v0a1.74,1.74,0,0,0,.1.19l0,.07h0l0,0,0,.09.1.19a1,1,0,0,1,.07.15v0s0,0,0,0l0,0,.08-.17c.06-.1.11-.2.16-.3A2,2,0,0,0,8,4.71l0,0h0v0l.15-.29c.06-.11.12-.22.17-.33l.12-.23a2.4,2.4,0,0,0,.11-.23,0,0,0,0,0,0,0h0v0h0v0h0s0,0,0,0h0s0,0,0,0h0s0,0,0,0h0s0,0,0,0h0s0,0,0,0h0s0,0,0,0l-.12-.24h0a0,0,0,0,0,0,0h0l0,0h0l0,0h0a.08.08,0,0,1,0,0h0l0-.05h0s0,0,0,0h0l0,0h0s0,0,0,0h0l0-.05h0s0,0,0,0h0l0-.05h0s0,0,0,0h0v0h0s0,0,0,0h0s0,0,0,0H8s0,0,0,0H8s0,0,0,0H8s0,0,0,0H8s0,0,0,0H8s0,0,0,0H8s0,0,0,0H8s0,0,0,0H8v0h0s0,0,0,0L7.8,2s0,0,0-.06h0a.08.08,0,0,1,0,0h0a.08.08,0,0,1,0,0h0a.08.08,0,0,1,0,0h0a.08.08,0,0,1,0,0h0v0a.09.09,0,0,1,0-.07s0-.06,0-.1l.11-.21s0,0,0,0h0v0L8,.94l.15-.3L8.29.36c.05-.08.09-.17.13-.25s0,0,0,0,0,0,0,0h0a.08.08,0,0,1,0,0h0L8.28.47s0,0,0,0h0a.05.05,0,0,1,0,0h0a.05.05,0,0,1,0,0h0s0,0,0,0h0a.05.05,0,0,1,0,0h0s0,0,0,0h0s0,0,0,0h0s0,0,0,0h0a.13.13,0,0,1,0,.05h0s0,0,0,0H8A.13.13,0,0,1,8,1H8S8,1,8,1H8l0,0H8a.08.08,0,0,1,0,0h0s0,0,0,.05h0a.08.08,0,0,1,0,0h0s0,0,0,0h0a.08.08,0,0,1,0,0h0a.31.31,0,0,0,0,.1l-.09.18h.92V.12h0V1.6s0,0,0,0H8.8v0H8.7c-.06,0,0,0,0,.05V3.47h0a.93.93,0,0,0,0-.1,1.74,1.74,0,0,0,.1-.19h0v0h0l0,0h0a.08.08,0,0,1,0,0h0l0,0h0a.05.05,0,0,1,0,0h0a.05.05,0,0,1,0,0h0a.05.05,0,0,1,0,0h0a2.12,2.12,0,0,0,.11.21l0,0s0,0,0,0,0,0,0,0a1.24,1.24,0,0,1,.1.2l.1.18v0s0,0,0,0l-.06-.11h0a.13.13,0,0,1,0-.05h0s0,0,0,0h0l0,0h0s0,0,0,0h0l0-.05h0l0,0L8.69,3.7l0-.06h0V5.44h0s0,0,0,0H9s0,0,0,0h-.3s0,0,0,0V7.3h0s0,0,0,0l0,0s0,0,0,0h0s0,0,0,0,.09-.17.13-.26L9,6.71s0,0,0,0H9a0,0,0,0,1,0,0H9a.06.06,0,0,1,0,0v0H9v0H9s0,0,0,0H9s0,0,0,.05h0s0,0,0,0h0s0,0,0,0h0s0,0,0,0h0s0,0,0,0h0s0,0,0,.06l-.14.29H8.61l0,0h0l0,0h0s0,0,0,0h0l0-.05h0s0,0,0,0h0l0,0h0v0h0s0,0,0,0h0V7h0s0,0,0,0h0V7h0s0,0,0,0h0v0h0v0h0s0,0,0,0h0v0h0s0,0,0,0h0l0,0c0-.06-.06-.13-.1-.2l0,0h0l0,0h0l0,0h0a.08.08,0,0,1,0,0h0l0,0h0l0,0H8l0,0H8s0,0,0,0H8L8,6.1H8s0,0,0,0h0l0,0h0s0,0,0,0h0a.09.09,0,0,1,0-.06h0s0,0,0,0h0v0h0v0h0s0,0,0,0h0s0,0,0,0h0v0h0s0,0,0,0h0s0,0,0,0h0v0h0a0,0,0,0,1,0,0h0l0-.12h0l0,0h0l0,0h0a.05.05,0,0,1,0,0h0l0,0h0l0,0h0s0,0,0,0h0l0,0h0s0,0,0,0h0s0,0,0,0l-.1.21,0,0h0v0h0s0,0,0,0h0v0h0s0,0,0,0h0v0h0s0,0,0,0h0s0,0,0,0h0s0,0,0,0h0v0h0a0,0,0,0,0,0,0h0s0,0,0,0h0l0,.06h0a.13.13,0,0,1,0,0h0s0,0,0,0h0a.13.13,0,0,1,0,0h0s0,0,0,.05H7a.05.05,0,0,1,0,0H7l0,0H7s0,0,0,0H7a.08.08,0,0,1,0,0h0s0,0,0,0h0l0,0h0l0,.06-.11.22a.08.08,0,0,1,0,0h0Zm1.9-.08V5.49H7.68l0,0h0c0,.09.09.18.13.27h0v0L8,6.16c.05.08.09.17.13.25l.17.33L8.44,7l.17.33Zm0-3.82h0V1.66s0,0,0,0h-.9l.09.18c.05.1.1.2.16.3s.09.19.14.27l.16.33L8.35,3h0V3l.15.29Zm-.37.9h0s0,0,0,0h0a.08.08,0,0,1,0,0h0l0,0h0a.08.08,0,0,1,0,0h0s0,0,0,0h0l0,0h0s0,0,0,0h0a.08.08,0,0,1,0,0H8l0,.05L7.89,5s0,0,0,0a0,0,0,0,0,0,0,.05.05,0,0,1,0,0h0s0,0,0,0h0a.05.05,0,0,1,0,0h0a.05.05,0,0,1,0,0h0a.05.05,0,0,1,0,0h0l0,0h0a.13.13,0,0,1,0,.05h0s0,0,0,0h.93V3.64a0,0,0,0,0,0,0h0v0h0l-.12.24s0,0,0,0h0s0,0,0,0h0a.05.05,0,0,1,0,0h0l0,0h0s0,0,0,0h0l0,.05h0a.08.08,0,0,1,0,0h0s0,0,0,.05h0A.08.08,0,0,1,8.23,4.37Zm-1.05,2v0c0-.09.09-.18.14-.27s.09-.2.15-.3.07-.15.11-.23a.1.1,0,0,1,0,0s0,0,0,0H6.7a.2.2,0,0,0,0,.07V7.28h0a.08.08,0,0,1,0,0h0a.05.05,0,0,1,0,0c0-.09.08-.17.13-.26S7,6.78,7,6.71l0,0H7v0l.13-.25v0Z"/><path class="cls-14" d="M11.61,5.46h.65s0,0,0,0h-.68a0,0,0,0,1,0,0,0,0,0,0,0,0,0h0l0,0,.14.28c.05.09.09.18.13.27h0v0l.14.27.18.34c0,.08.07.16.11.23a3.18,3.18,0,0,1,.16.32h0V6h0l0,.06V7.29s0,0,0,0h0l0-.08c.07-.13.14-.27.2-.4l.08-.15s0,0,0,0h0l0,0s0,0,0,0h0s0,0,0,.05h0l0,0h0s0,0,0,0h0l0,0h0s0,0,0,0h0s0,0,0,0h0a0,0,0,0,1,0,0h0v0h0a0,0,0,0,1,0,0h0v0h0a0,0,0,0,1,0,0h0l0,0h-.05v0h0s0,0,0,0h0a.05.05,0,0,1,0,0h0s0,0,0,0h0a.05.05,0,0,1,0,0h0s0,0,0,0h0l0,0h0a.08.08,0,0,1,0,0h0s0,0,0,0h0a.08.08,0,0,1,0,0s0,0,0,0,0,0,0,0h0l0,0h0l0,0h0v0h0l0,0h0a0,0,0,0,1,0,0h0l0,0h0a0,0,0,0,1,0,0h0l0,0h0l0,0h0a.08.08,0,0,1,0,0h0l0,0h0l0,0h0l0,0h0s0,0,0,0h0s0,0,0-.05h0s0,0,0,0h0s0,0,0,0h0s0,0,0,0h0l0,0h0a.05.05,0,0,1,0,0,0,0,0,0,0,0,0l0,0h0a.05.05,0,0,1,0,0h0s0,0,0,0h0l0,0h0v0h0s0,0,0,0h0l0,0h0l0,0h0s0,0,0,0h0l0,.05h0a.08.08,0,0,1,0,0h0l0,0h0a.08.08,0,0,1,0,0h0l0,0h0l0,0h0s0,0,0,0h0a0,0,0,0,1,0,0h0v0h0a0,0,0,0,1,0,0h0v0l0,0v0s0,0,0-.08a2.26,2.26,0,0,0,.11-.22.05.05,0,0,0,0,0h0a2.64,2.64,0,0,1,.15-.29v0s0,0,0,0h-.68s0,0,0,0h.71v0h0v0h0l0,0h0l0,0h0a.05.05,0,0,1,0,0h0l0,0h0a.05.05,0,0,1,0,0h0a3.24,3.24,0,0,1-.17-.32h0l-.15-.29h0a0,0,0,0,1,0,0h0v0h0a0,0,0,0,1,0,0h0v0h0a0,0,0,0,1,0,0h0l0,0h0s0,0,0-.05h0l0,0h0s0,0,0,0h0l0,0h0s0,0,0-.05h0s0,0,0,0a2.4,2.4,0,0,0-.11-.23.08.08,0,0,0,0,0,.09.09,0,0,0,0,0V5.1h0s0,0,0,0V3.64s0,0,0,0h0s0,0,0,0a0,0,0,0,1,0,0h0l0,0h0a0,0,0,0,1,0,0h0l0,0h0a0,0,0,0,1,0,0h0l0,.05c0,.07-.07.15-.11.22l0,0h0l-.12.24,0,0h0l0,0h0a.93.93,0,0,1,.05-.1h0l.13-.27L10.36,4l.19-.39h0v0h0v0h0v0h0v0a0,0,0,0,0,0,0,0,0,0,0,1,0,0h0v0h0a0,0,0,0,1,0,0h0a0,0,0,0,0,0,0,.05.05,0,0,1,0,0h0a0,0,0,0,1,0,0v0h0l0,0,.09.17s0,0,0,0V3.25h0v.2h0l.09-.18s0,0,0,0h0l0,0h0a.08.08,0,0,1,0,0h0l0,0h0a.05.05,0,0,1,0,0h0s0,0,0,0h0a.05.05,0,0,1,0,0h0l.12.24h0v0c.05.09.09.18.14.26h0c0,.11.11.22.16.32l.12.24h0l.06.11.08.16h0a.53.53,0,0,1,.06.1c0,.06.06.13.1.2a1,1,0,0,1,.07.15s0,0,0,0,0,0,0,0l0,0a1.19,1.19,0,0,0,.08-.16l.21-.4v0h0s0,0,0,0h0v0h0s0,0,0,0h0V5h0s0,0,0,.06a1.24,1.24,0,0,1-.1.2l-.06.11h0a.08.08,0,0,1,0,0h0Z"/><path class="cls-12" d="M10.42,3.25v0Z"/><path class="cls-12" d="M8.81,3.23h0Z"/><polygon class="cls-12" points="8.8 3.25 8.81 3.24 8.81 3.25 8.8 3.25"/><polygon class="cls-12" points="8.78 3.3 8.78 3.29 8.78 3.29 8.78 3.3"/><path class="cls-12" d="M10.44,3.3h0Z"/><path class="cls-12" d="M10.45,3.32Z"/><path class="cls-12" d="M8.76,3.34Z"/><path class="cls-12" d="M10.47,3.36h0Z"/><path class="cls-12" d="M8.73,3.39h0Z"/><polygon class="cls-12" points="10.48 3.39 10.48 3.39 10.48 3.39 10.48 3.39"/><path class="cls-12" d="M10.49,3.41h0Z"/><path class="cls-12" d="M8.7,3.44h0Z"/><polygon class="cls-12" points="10.51 3.44 10.51 3.44 10.51 3.44 10.51 3.44"/><path class="cls-12" d="M10.52,3.46s0,0,0,0Z"/><path class="cls-12" d="M8.68,3.49h0Z"/><polygon class="cls-12" points="10.53 3.49 10.53 3.49 10.53 3.49 10.53 3.49"/><path class="cls-12" d="M10.54,3.51s0,0,0,0Z"/><path class="cls-12" d="M8.65,3.54h0Z"/><polygon class="cls-12" points="10.56 3.54 10.56 3.54 10.56 3.54 10.56 3.54"/><path class="cls-12" d="M8.65,3.56h0Z"/><path class="cls-12" d="M10.57,3.56h0Z"/><path class="cls-12" d="M8.79,3.83s0,0,0,0A0,0,0,0,1,8.79,3.83Z"/><polygon class="cls-12" points="10.09 4.49 10.09 4.49 10.09 4.49 10.09 4.49 10.09 4.49"/><path class="cls-12" d="M10.15,4.38h0Z"/><path class="cls-10" d="M7,3.05S7,3,7,3l0-.08a.42.42,0,0,0,0-.1s0-.08,0-.13a1.17,1.17,0,0,0,0-.2c0-.06,0-.12.05-.19h0a.7.7,0,0,1,0-.14v0a.57.57,0,0,1,0-.13s0,0,0,0,0,0,0-.05V1.54a.34.34,0,0,0,0-.1s0-.07,0-.1,0,0,0-.05a.36.36,0,0,0,0-.1.3.3,0,0,0,0-.1L7.11.92A.61.61,0,0,0,7,.78.16.16,0,0,0,6.89.69l-.07,0A.67.67,0,0,0,6.68.8l0,0A.67.67,0,0,0,6.49,1l-.17.21-.1.15a.45.45,0,0,0-.06.12l-.06.1L6,1.73A1.46,1.46,0,0,1,6,1.92a.56.56,0,0,1,0,.12s0,0,0,0h0s0,0,0,0,0,0,0,0L6,1.68l.12-.24.14-.22A1,1,0,0,1,6.43,1L6.6.84A1,1,0,0,1,6.78.71a.28.28,0,0,1,.15,0L7,.69A.17.17,0,0,1,7,.75a.52.52,0,0,1,.1.18,1.55,1.55,0,0,1,.06.23,2,2,0,0,1,0,.24c0,.05,0,.09,0,.14s0,.18,0,.27,0,.11,0,.16l0,.24c0,.08,0,.16-.05.24l-.09.32c0,.09-.07.17-.1.26v0H7Z"/><path class="cls-9" d="M5.81,2.38s0,0,0,0V2.5s0,0,0,0,0,0,0,0a.28.28,0,0,0,0,.09v0a.13.13,0,0,0,0,.06c0,.06,0,.12,0,.18a.38.38,0,0,1,0,.1v.13h0a.14.14,0,0,1,0-.09V3a.76.76,0,0,1,0-.15.49.49,0,0,1,0-.12s0-.07,0-.11l0-.16a.19.19,0,0,1,0-.08S5.8,2.38,5.81,2.38Z"/><path class="cls-4" d="M7,3.06H7a0,0,0,0,1,0,0c0,.09-.05.18-.07.27v0h0s0,0,0,0h0a.05.05,0,0,1,0,0h0v0c0-.1,0-.19.08-.29a.09.09,0,0,1,0-.05Z"/><path class="cls-9" d="M5.83,2.27s0,0,0,0,0,0,0,.06,0,0,0,0a.19.19,0,0,1,0-.08Z"/><path class="cls-9" d="M5.87,2.16v0a.07.07,0,0,0,0,0l0,0,0-.11Z"/><path class="cls-6" d="M5.73,3.13h0v.16h0Z"/><path class="cls-10" d="M5.87,2.16h0a.14.14,0,0,1,0-.06h0v0Z"/><path class="cls-9" d="M5.89,2.09h0a0,0,0,0,1,0,0h0Z"/><path class="cls-9" d="M5.9,2s0,0,0,0Z"/><polygon class="cls-12" points="5.98 6.05 5.98 6.05 5.98 6.05 5.98 6.05"/><polygon class="cls-12" points="6.01 6.1 6.01 6.1 6 6.1 6.01 6.1"/><polygon class="cls-12" points="6.03 6.15 6.03 6.15 6.03 6.15 6.03 6.15"/><polygon class="cls-12" points="6.06 6.2 6.06 6.2 6.06 6.2 6.06 6.2"/><path class="cls-12" d="M6.08,6.24h0Z"/><path class="cls-12" d="M6.1,6.29h0Z"/><path class="cls-12" d="M6.13,6.34h0Z"/><path class="cls-12" d="M6.15,6.39h0Z"/><path class="cls-12" d="M6.18,6.44h0Z"/><path class="cls-12" d="M6.2,6.49h0Z"/><path class="cls-12" d="M6.21,6.5h0Z"/><path class="cls-12" d="M6.36,6.79h0Z"/><polygon class="cls-12" points="6.38 6.82 6.38 6.82 6.37 6.82 6.38 6.82"/><path class="cls-12" d="M6.39,6.84h0S6.38,6.85,6.39,6.84Z"/><polygon class="cls-12" points="6.4 6.87 6.4 6.87 6.4 6.87 6.4 6.87"/><path class="cls-12" d="M6.41,6.89h0A0,0,0,0,1,6.41,6.89Z"/><polygon class="cls-12" points="6.42 6.92 6.42 6.92 6.42 6.92 6.42 6.92"/><path class="cls-12" d="M6.44,6.94h0S6.43,7,6.44,6.94Z"/><polygon class="cls-12" points="6.45 6.97 6.45 6.97 6.45 6.97 6.45 6.97"/><path class="cls-12" d="M6.46,7h0Z"/><polygon class="cls-12" points="6.47 7.02 6.47 7.02 6.47 7.02 6.47 7.02"/><path class="cls-12" d="M6.49,7h0S6.48,7.05,6.49,7Z"/><path class="cls-12" d="M6.5,7.06Z"/><polygon class="cls-12" points="6.51 7.08 6.51 7.08 6.51 7.08 6.51 7.08"/><polygon class="cls-12" points="6.53 7.13 6.53 7.13 6.53 7.13 6.53 7.13"/><polygon class="cls-12" points="6.56 7.18 6.56 7.18 6.56 7.18 6.56 7.18"/><polygon class="cls-12" points="6.58 7.23 6.58 7.23 6.58 7.23 6.58 7.23"/><polygon class="cls-12" points="6.61 7.28 6.61 7.28 6.61 7.28 6.61 7.28"/><polygon class="cls-12" points="6.63 7.33 6.63 7.33 6.63 7.33 6.63 7.33"/><path class="cls-1" d="M8.31,3s0,0,0,0h0a.08.08,0,0,0,0,.05h0s0,0,0,0h0l.12.24s0,0,0,0h0v0h0v0h0v0h0a0,0,0,0,0,0,0h0s0,0,0,0h0v0a0,0,0,0,0,0,0v0h0v0l-.12.23L8.37,4c0,.11-.11.22-.17.33l-.14.29v0H8v0l-.11.22c0,.1-.1.2-.16.3a1.19,1.19,0,0,1-.08.16l0,0h0s-.05-.11-.08-.16a1.62,1.62,0,0,1-.1-.18l0-.09,0,0h0l0-.07a1.24,1.24,0,0,1-.1-.2h0a.54.54,0,0,0-.07-.13,2.44,2.44,0,0,0-.14-.28v0a0,0,0,0,1,0,0c.06-.17.12-.34.17-.51s0-.16.07-.23.07-.26.1-.39.08-.33.11-.49,0-.19,0-.28,0-.18,0-.27l0-.23s0-.07,0-.1,0,0,0,0h0a.08.08,0,0,0,0,0h0a.08.08,0,0,0,0,0h0a.08.08,0,0,0,0,0h0a.08.08,0,0,0,0,0h0l0,.06.12.24,0,0h0v0H8s0,0,0,0H8v0H8v0H8v0H8s0,0,0,0H8v0H8v0h0v0h0a0,0,0,0,0,0,0h0l0,0h0l0,0h0l0,0h0l0,0h0a.08.08,0,0,0,0,0h0l0,0h0a.05.05,0,0,0,0,0h0l0,0h0a.05.05,0,0,0,0,0Z"/><path class="cls-1" d="M10.88,4.11c0-.09-.08-.17-.13-.26v0a0,0,0,0,0,0,0h0l-.12-.24h0a.05.05,0,0,0,0,0h0s0,0,0,0h0a.05.05,0,0,0,0,0h0l0,0h0a.08.08,0,0,0,0,0h0s0,0,0,0,0,0,0,0h0l.09,0A.61.61,0,0,0,11.14,3a.83.83,0,0,0,.2-.22.8.8,0,0,0,.11-.25,1.41,1.41,0,0,0,.06-.22,2.09,2.09,0,0,0,0-.25,1.57,1.57,0,0,0,0-.23v0a0,0,0,0,0,0,0h0s0,0,0,0a0,0,0,0,0,0,0s0,0,0,0h0s0,0,0,0,0,0,0,0,0,0,0,0h0v0h0s0,0,0,0h0a.08.08,0,0,0,0,0h0s0,0,0,0h0a.08.08,0,0,0,0,0h0s0,0,0,0h0l.12.24,0,0h0v0h0a0,0,0,0,0,0,0,0,0,0,0,0,0,0s0,0,0,0h0s0,0,0,0h0v0h0s0,0,0,0,0,0,0,0v0h0s0,0,0,0h0s0,0,0,0h0s0,0,0,0h0v0h0s0,0,0,0h0l0,.05h0s0,0,0,0h0l0,.05h0s0,0,0,0h0v0h0s0,0,0,0h0l0,.05h0s0,0,0,0h0l0,0h0s0,0,0,.05h0v0h0v0h0s0,0,0,0l-.08.14a2.83,2.83,0,0,1-.2.28l-.18.19-.22.16L11.45,4a2.39,2.39,0,0,1,.13.21,1.59,1.59,0,0,1,.13.22s0,.09.08.14l.08.15v0a0,0,0,0,1,0,0l0,0c-.06.13-.13.26-.2.39s-.05.12-.08.17,0,0,0,0h0l-.07-.16-.11-.19a.19.19,0,0,0,0-.1h0s-.05-.1-.08-.16l-.06-.11h0l-.12-.23c-.05-.11-.11-.21-.16-.32h0Z"/><path class="cls-15" d="M11.28,6.05h0V6h0a0,0,0,0,1,0,0h0l0,0h0l0,0h0l0,0h0l0,0h0l0,0h0l0,0h0s0,0,0,0h0l0,0h0l0,0h0a0,0,0,0,0,0,0h0s0,0,0,0h0l0,0h0s0,0,0,0h0a.05.05,0,0,0,0,0h0l0,0s0,0,0,0a.05.05,0,0,0,0,0h0l0,0h0a.08.08,0,0,0,0,0h0a.08.08,0,0,0,0,0h0a.08.08,0,0,0,0,0h0a.08.08,0,0,0,0,.05h0a.08.08,0,0,0,0,0h0l0,0h0l0,0h0l0,0h0a.08.08,0,0,0,0,0h0l0,0h0l0,0h0v0h0l0,0s0,0,0,0h0s0,0,0,0h0l0,0s0,0,0,0h0s0,0,0,0h0l0,0h0a.05.05,0,0,0,0,0h0s0,0,0,0a0,0,0,0,0,0,0,.05.05,0,0,0,0,0h0l0,0h0a.05.05,0,0,0,0,0h0l0,0h0a.13.13,0,0,0,0,0h0s0,0,0,0h0a.13.13,0,0,0,0,.05h0s0,0,0,0h0a.13.13,0,0,0,0,0h0s0,0,0,0h-.67s0,0,0,0l-.09-.17-.16-.32c-.05-.08-.08-.17-.13-.25a1.86,1.86,0,0,1-.1-.2,1.74,1.74,0,0,1-.1-.19,0,0,0,0,1,0,0v0h0v0h0v0Z"/><path class="cls-15" d="M9.89,1.06H9.32L9.2.8C9.13.67,9.07.54,9,.42S8.91.23,8.86.14v0s0,0,0,0h1.53c-.05.1-.1.2-.16.3L10,.81,9.93,1A.36.36,0,0,0,9.89,1.06Z"/><path class="cls-2" d="M11.42,5.22a.08.08,0,0,0,0,0h0l0,0h0l0,0h0v0h0v0H10.8l-.13-.2-.05-.09,0,0V3.69a.09.09,0,0,1,0,0,.05.05,0,0,1,0,0,1.63,1.63,0,0,1,.11.23s0,0,0,0h0a.05.05,0,0,0,0,0h0l0,0h0a.05.05,0,0,0,0,0h0s0,0,0,0h0a.05.05,0,0,0,0,0h0s0,0,0,0h0a0,0,0,0,0,0,0h0v0h0a0,0,0,0,0,0,0h0v0h0a0,0,0,0,0,0,0h0l.15.29h0a3.24,3.24,0,0,0,.17.32h0l0,0h0l0,0S11.42,5.22,11.42,5.22Z"/><path class="cls-2" d="M8,1S8,1,8,1H8A.13.13,0,0,0,8,.94H8s0,0,0,0h0a.13.13,0,0,0,0-.05h0s0,0,0,0h0s0,0,0,0,0,0,0,0,0,0,0,0h0a.05.05,0,0,0,0,0,0,0,0,0,0,0,0s0,0,0,0h0a.05.05,0,0,0,0,0,0,0,0,0,0,0,0s0,0,0,0h0s0,0,0,0L8.39.23h0s0,0,0,0h0s0,0,0,0l0,0h.14v1.5H7.69l.09-.18a.31.31,0,0,1,0-.1h0a.08.08,0,0,0,0,0h0s0,0,0,0h0a.08.08,0,0,0,0,0h0s0,0,0,0h0a.08.08,0,0,0,0,0H8L8,1Z"/><path class="cls-15" d="M10.81.13h.06l.2,0,.22.06.22.08a2.1,2.1,0,0,1,.3.15L12,.61l0,0v0l0,0-.18.37a1.74,1.74,0,0,1-.1.19h0a.05.05,0,0,0,0,0c-.05.09-.09.18-.14.26s0,0,0,.06h0s0,0,0,0h0l-.09-.18-.06-.11s0,0,0,0l-.09-.18a.41.41,0,0,1,0-.09,0,0,0,0,0,0,0,.05.05,0,0,0,0,0,2.1,2.1,0,0,0-.13-.26L11,.44l0,0h0Z"/><path class="cls-15" d="M12.51,7.3c0-.11-.1-.21-.16-.32s-.07-.15-.11-.23l-.18-.34c0-.09-.09-.18-.14-.27v0h0c0-.09-.08-.18-.13-.27l-.14-.28v0h0s0,0,0,0h.69v0l.06.12.06.11.1.18s0,0,0,0h0V7.29Z"/><path class="cls-2" d="M12.52,2.52a.58.58,0,0,1,0,.18c0,.09-.06.18-.09.27l-.06.12h0L12.26,3h0v0c-.05-.11-.11-.21-.16-.31S12,2.46,12,2.37l-.15-.3-.12-.23-.09-.18h.89s0,0,0,0v.86Z"/><path class="cls-2" d="M6.65,7.3,6.49,7a2.12,2.12,0,0,1-.11-.21L6.2,6.41l-.14-.27S6,6,6,6L6,6c.07-.07.13-.15.19-.22l.12-.17,0,0,0,0h.28v1.8Z"/><path class="cls-2" d="M7.17,4.55l0,0h0l0,0h0l0,0h0s0,0,0,0h0a.25.25,0,0,0,0,.07h0l0,0h0a.08.08,0,0,0,0,0h0a.08.08,0,0,0,0,0h0l0,0h0a.35.35,0,0,0,0,.08h0a.05.05,0,0,0,0,0h0a.05.05,0,0,0,0,0h0a.05.05,0,0,0,0,0h0a.05.05,0,0,0,0,0h0l0,0a.31.31,0,0,0,0,.1H6.7s0,0,0,0V5h0l0-.05.13-.27.09-.19L7,4.29v0H7a1.09,1.09,0,0,0,.08.15l0,.06h0s0,0,0,0Z"/><path class="cls-2" d="M12.07.68s0,0,0,0h0a1.79,1.79,0,0,1,.25.31,1.55,1.55,0,0,1,.14.29.08.08,0,0,0,0,.05.34.34,0,0,1,0,.1v.18h-.93l.15-.28h0a.08.08,0,0,0,0,0h0l0,0h0a.08.08,0,0,0,0,0h0l0,0h0a.08.08,0,0,0,0,0h0a0,0,0,0,0,0,0,0,0,0,0,0,0,0h0s0,0,0-.05h0l0-.05h0s0,0,0,0h0l0-.05h0s0,0,0,0h0s0,0,0,0l0,0h0S12.07.69,12.07.68Z"/><path class="cls-11" d="M10.6.11h.17l0,0,0,.09a2.26,2.26,0,0,1,.11.22l0,0h0a.08.08,0,0,0,0,0h0s0,0,0,0h0a.08.08,0,0,0,0,0h0s0,0,0,0h0a.08.08,0,0,0,0,0h0l0,.06c.07.14.14.28.22.42l.06.11h0l.09.18,0,.07h-.12s0,0,0,0a.82.82,0,0,0-.12-.2h0a.52.52,0,0,0-.1-.11L11,1.2l-.15-.07a.7.7,0,0,0-.25,0,0,0,0,0,1,0,0V.11Z"/><path class="cls-11" d="M8.42.11c-.05.08-.08.17-.13.25L8.15.64c-.06.1-.1.2-.16.3s-.09.19-.14.28v0h0l0,0-.1.21a.47.47,0,0,0,0,.1s0,0,0,0a.59.59,0,0,1,0-.13V1.35a.2.2,0,0,0,0-.07c0-.05,0-.09,0-.13s0-.11,0-.17a.41.41,0,0,1,0-.11.49.49,0,0,1,0-.12h0a.62.62,0,0,1,0-.13.71.71,0,0,1,0-.14h0V.35a1.28,1.28,0,0,0,0-.19h0s0,0,.05,0h.6Z"/><path class="cls-11" d="M8.8,1.63H8.67s0,0,0,0V.11H8.8v0L9,.47l.15.29c0,.09.09.18.13.27s0,0,0,0h0a1.92,1.92,0,0,1-.24,0H8.84c-.05,0-.05,0-.05,0a1.21,1.21,0,0,1,0,.19c0,.1,0,.19,0,.29Z"/><path class="cls-2" d="M10.57,1.06H9.93s0,0,0,0l.14-.27c.06-.13.13-.26.2-.39l.08-.16A.37.37,0,0,0,10.41.1a.65.65,0,0,1,.14,0l0,0v.94Z"/><path class="cls-11" d="M10.27,4.2l0,0c0-.08.07-.15.11-.22l0-.05h0v0h0l0,0h0v0h0l0,0h0a0,0,0,0,0,0,0h0V5.08l0,0-.18-.25-.1-.13-.09-.1-.06-.06h0l0,0,.12-.24h0Z"/><path class="cls-8" d="M8.8,3.19l-.1.19a.41.41,0,0,1,0,.09h0V1.71c0-.06,0-.05,0-.05h.1V2c0,.22,0,.43,0,.65s0,.3,0,.45A.13.13,0,0,1,8.8,3.19Z"/><path class="cls-11" d="M12.67,7.16v0h0l0,0h0a.05.05,0,0,0,0,0h0s0,0,0,0h0l0,0h0s0,0,0,0h0l0,0h0s0,0,0-.05h0s0,0,0,0l0,0,0,0,.1.19.14.28.09.17h-.71l0,0h0l0,0h0v0h0l0,0h0Z"/><path class="cls-2" d="M11.37,5.8a.05.05,0,0,1,0,0,2.26,2.26,0,0,1-.11.22s0,.05,0,.08,0,0,0,0h0l-.11-.19-.16-.29-.09-.16h.71v0a2.64,2.64,0,0,0-.15.29Z"/><path class="cls-8" d="M12.56,7.29V6s0,0,0,0a.47.47,0,0,1,.05.1l.09.17c0,.09.1.18.14.27l0,0s0,0,0,0l-.08.15c-.06.13-.13.27-.2.4l0,.08Z"/><path class="cls-11" d="M11.86,4.92h0v0h0s0,0,0,0h0L12,5l.1.18.1.19,0,.05s0,0,0,0h-.67s0,0,0,0h0l.06-.11a1.24,1.24,0,0,0,.1-.2s0,0,0-.06h0V5h0s0,0,0,0Z"/><path class="cls-13" d="M11.4,1.35l-.06-.11c-.08-.14-.15-.28-.22-.42l0-.06h0a.05.05,0,0,1,0,0h0s0,0,0,0h0a.05.05,0,0,1,0,0h0s0,0,0,0h0a.05.05,0,0,1,0,0h0l0,0c0-.07-.07-.14-.11-.22a.59.59,0,0,0,0-.08l0,0h0l.12.25h0l0,0,.11.23a2.1,2.1,0,0,1,.13.26.05.05,0,0,1,0,0,0,0,0,0,0,0,0h0l0,.09.09.18h0l.06.11.09.18h0s0,0,0,0,0,0,0,0,0,0,0-.06.09-.17.14-.26a.05.05,0,0,1,0,0h0a1.74,1.74,0,0,0,.1-.19L12,.68l0,0a0,0,0,0,1,0,0s0,0,0,0h0s0,0,0,0h0v0h0s0,0,0,0h0l0,.05h0s0,0,0,0h0l0,.05h0s0,0,0,.05h0a0,0,0,0,1,0,0h0a.08.08,0,0,1,0,0h0l0,0h0a.08.08,0,0,1,0,0h0l0,0h0a.08.08,0,0,1,0,0h0l-.15.28h.93V1.46h0a.13.13,0,0,1,0,.06,0,0,0,0,1,0,.05v0a0,0,0,0,0,0,0v0s0,0,0,0v.7a.13.13,0,0,0,0,.06.13.13,0,0,0,0,.06h0V1.66s0,0,0,0h-.86s0,0,0,0l.09.19.12.22.15.31a2,2,0,0,1,.13.25l.16.31V3h0l.06.13s0,0,0,0h0v0h0a0,0,0,0,1,0,0h0l0,0h0s0,0,0,0h0a.08.08,0,0,1,0,0h0s0,0,0,0h0a.08.08,0,0,1,0,0h0v0h0s0,0,0,0h0l0-.05h0s0,0,0,0h0l0-.05h0s0,0,0,0h0v0h0a0,0,0,0,1,0,0h0a0,0,0,0,1,0,0h0s0,0,0,0h0s0,0,0,0h0a0,0,0,0,1,0,0h0s0,0,0,0h0s0,0,0,0h0v0h0a0,0,0,0,1,0,0h0v0h0l0,0L11.71,2h0s0,0,0,0h0a.08.08,0,0,1,0,0h0s0,0,0,0h0a.08.08,0,0,1,0,0h0s0,0,0,0,0,0,0,0,0,0,0,0h0s0,0,0,0h0s0,0,0,0h0s0,0,0,0h0s0,0,0,0h0v0l.06-.12v0h-.11s0,0,0,0h.12l0-.07-.08-.18Z"/><path class="cls-8" d="M6.66,5.05v.4H6.41v0l.09-.15a1.74,1.74,0,0,0,.11-.18A.1.1,0,0,1,6.66,5.05Z"/><path class="cls-12" d="M10.41.1a.37.37,0,0,1-.05.11l-.08.16-.2.39L9.94,1s0,0,0,0h0a.36.36,0,0,1,0-.09L10,.81l.2-.41c.06-.1.11-.2.16-.3Z"/><path class="cls-14" d="M10.57,1.06V.12h0v1Z"/><path class="cls-8" d="M12.56,2.37v-.7s0,0,0,0a.06.06,0,0,1,0,0s0,.06,0,.09,0,.17,0,.26,0,.08,0,.12,0,.06,0,.09a.31.31,0,0,1,0,.08Z"/><path class="cls-8" d="M10.73,3.24l0,0-.09.18v0h0V3.26h.13Z"/><path class="cls-8" d="M10.57,3.26v.21s0,0,0,0l-.09-.18,0,0h.13Z"/><path class="cls-8" d="M11.42,1.66h.11v0l-.06.11-.05-.12Z"/><path class="cls-12" d="M12.28,5.48h0Z"/><path class="cls-12" d="M11.53,5.48h0S11.53,5.47,11.53,5.48Z"/><path class="cls-12" d="M6.66,5.49h0Z"/><path class="cls-12" d="M6.41,5.45h0Z"/><path class="cls-14" d="M8.84,3.15s0,0,0,0h0s0,0,0,0Z"/><path class="cls-4" d="M12.56,1.63a0,0,0,0,1,0,0,.06.06,0,0,1,0,0h0S12.58,1.61,12.56,1.63Z"/><path class="cls-12" d="M10.73,3.24h0s0,0,0,0Z"/><path class="cls-13" d="M10.6,5.1v0s0,0,0,0Z"/><path class="cls-12" d="M12.52,2.49h0l0,0Z"/><path class="cls-12" d="M11.59,5.45h0Z"/><path class="cls-12" d="M12.53,1.46h0v0S12.53,1.45,12.53,1.46Z"/><path class="cls-12" d="M11.48,1.82h0s0,0,0,0Z"/><path class="cls-12" d="M10.78.13h0Z"/><path class="cls-12" d="M12.52,6h0Z"/><path class="cls-12" d="M12.3,3.12Z"/><path class="cls-12" d="M8.81,3.2h0Z"/><path class="cls-12" d="M10.57,3.26h0Z"/><path class="cls-13" d="M10.6,3.25h0Z"/><path class="cls-12" d="M7,4.27H7Z"/><path class="cls-12" d="M6.69,5h0Z"/><path class="cls-12" d="M8.61.12h0Z"/><path class="cls-12" d="M10.11,4.51Z"/><polygon class="cls-12" points="7.65 1.67 7.65 1.68 7.65 1.67 7.65 1.67"/><path class="cls-12" d="M7.66,1.69h0Z"/><path class="cls-5" d="M.72,4.2h0Z"/><path class="cls-10" d="M6.27,3.35a0,0,0,0,1,0,0l0-.15s0,0,0,0,0,0,0,.06a.83.83,0,0,1,0,.15Z"/><path class="cls-10" d="M6.63,3.74h0l-.05-.05v0h0Z"/><path class="cls-10" d="M6.5,3.62h0a.12.12,0,0,1-.05,0h0Z"/><path class="cls-10" d="M6.27,3.4s0,0,0,0Z"/><path class="cls-10" d="M6.94,3H7S6.94,3,6.94,3Z"/><path class="cls-10" d="M6.89,3h0S6.89,3,6.89,3Z"/><path class="cls-10" d="M6.61,2.72h0Z"/><path class="cls-10" d="M6.67,2.77h0Z"/><path class="cls-10" d="M6.75,2.85h0Z"/><path class="cls-10" d="M6.76,2.86a0,0,0,0,1,0,0h0A0,0,0,0,1,6.76,2.86Z"/><path class="cls-10" d="M6.77,2.87Z"/><path class="cls-10" d="M6.77,2.87h0Z"/><path class="cls-10" d="M6.78,2.88a0,0,0,0,1,0,0h0a0,0,0,0,1,0,0Z"/><path class="cls-10" d="M6.79,2.89h0Z"/><path class="cls-10" d="M6.8,2.9a0,0,0,0,1,0,0h0a0,0,0,0,1,0,0Z"/><path class="cls-10" d="M6.81,2.91h0Z"/><path class="cls-10" d="M6.31,3.43h0Z"/><path class="cls-10" d="M6.32,3.44h0Z"/><path class="cls-10" d="M6.32,3.45h0Z"/><path class="cls-10" d="M6.33,3.46h0Z"/><path class="cls-10" d="M6.34,3.47h0s0,0,0,0Z"/><path class="cls-10" d="M6.35,3.47h0Z"/><path class="cls-10" d="M6.36,3.48h0Z"/><path class="cls-10" d="M6.37,3.49s0,0,0,0Z"/><path class="cls-10" d="M6.38,3.51h0Z"/><path class="cls-10" d="M6.39,3.52h0S6.39,3.51,6.39,3.52Z"/><path class="cls-10" d="M6.4,3.52h0Z"/><path class="cls-10" d="M6.41,3.53h0Z"/><path class="cls-10" d="M6.42,3.54s0,0,0,0Z"/><path class="cls-9" d="M5.05,3.56,5,3.65v0l.12-.45.07-.26a.29.29,0,0,0,0-.09l0,0,.17-.11.21-.13s0,0,0,0v0a.28.28,0,0,1,0,.09.28.28,0,0,1,0,.09s0,.1,0,.15A.17.17,0,0,0,5.6,3a.49.49,0,0,0,0,.12s0,0,0,.05,0,0,0,0l-.26.15-.07,0,0,0a.2.2,0,0,1-.06.07h0s0-.07.07-.11h0l.17-.1.18-.11a0,0,0,0,0,0,0,.21.21,0,0,0,0-.11s0-.06,0-.1a.77.77,0,0,0,0-.15v0s0-.11,0-.16h0s0,0,0,0l0,0-.24.15-.08,0a.05.05,0,0,0,0,0s0,.08,0,.13a.83.83,0,0,1,0,.15.24.24,0,0,1,0,.08v0l0,.15s0,.11-.05.17,0,0,0,0Z"/><path class="cls-9" d="M5.12,3.46a.43.43,0,0,1,0,.07l0,0H5a.39.39,0,0,1,.08-.1Z"/><path class="cls-1" d="M7.8,5.79v0s0,0,0,0,0,0,0,0h0s0,0,0,0h0v0h0l0,.06h0s0,0,0,0h0l0,0h0s0,0,0,0H8l0,.05H8a.08.08,0,0,0,0,0H8l0,0H8l0,0h0s0,0,0,0h0a.08.08,0,0,0,0,0h0s0,0,0,0h0l0,0h0s0,0,0,0,.07.14.1.2l0,0s0,0,0,0v0h0v0h0s0,0,0,0h0v0h0v0h0s0,0,0,0h0V7h0a0,0,0,0,0,0,0h0V7h0V7h0a.08.08,0,0,0,0,0h0s0,0,0,0h0a.08.08,0,0,0,0,0h0s0,0,0,0h0l0,0h0s0,0,0,0H6.71v0h0l0,0,.1-.21a.25.25,0,0,0,0-.07h0a.05.05,0,0,0,0,0h0s0,0,0,0h0a.05.05,0,0,0,0,0H7l0,0H7a.05.05,0,0,0,0,0H7l0,0H7a.08.08,0,0,0,0,0h0s0,0,0,0h0a.08.08,0,0,0,0,0h0s0,0,0,0h0l0-.06h0v0h0a0,0,0,0,1,0,0h0v0h0v0h0a0,0,0,0,0,0,0h0v0h0a0,0,0,0,1,0,0h0a0,0,0,0,0,0,0h0v0h0a0,0,0,0,0,0,0h0v0h0l0,0L7.43,6a.33.33,0,0,0,0-.06h0a.08.08,0,0,0,0,0h0s0,0,0,0h0a.08.08,0,0,0,0,0h0l0,0h0s0,0,0-.05h0s0,0,0,0h0s0,0,0,0h0l0,0h0a.61.61,0,0,1,0,.12h0v0h0v0h0v0h0v0h0v0h0s0,0,0,0h0Z"/><path class="cls-11" d="M8.94,4.19,9,4.3s0,0,0,0v1.1H8.65V3.64h0l0,.06a1.74,1.74,0,0,0,.1.19.05.05,0,0,0,0,0h0l0,.05h0s0,0,0,0h0s0,0,0,0h0s0,0,0,0h0s0,0,0,.05Z"/><path class="cls-1" d="M9,6.64a0,0,0,0,0,0,0H9s0,0,0,0l-.12.22c0,.09-.08.17-.13.26s0,0,0,0h0l0,0h0V5.5H9s0,0,0,0V6.62S9,6.63,9,6.64Z"/><path class="cls-2" d="M9,6.73v0H9v.67H8.66l.14-.29s0,0,0-.06h0s0,0,0,0h0s0,0,0,0h0s0,0,0,0h0s0,0,0,0h0s0,0,0-.05H9l0,0Z"/><path class="cls-12" d="M8.65,5.45h0S8.67,5.47,8.65,5.45Z"/><path class="cls-12" d="M9,6.64v0Z"/><path class="cls-12" d="M9,6.69H9v0Z"/><path class="cls-8" d="M6.62,3.8h0Z"/><path class="cls-4" d="M6.88,3.45h0Z"/><path class="cls-11" d="M4.46,7.06h.07l.14.27s0,0,0,0h-1l.17-.05h0l.08,0,.36-.13Z"/><path class="cls-5" d="M4.75,7.28h0v0Z"/><path class="cls-5" d="M5,6.82s0,0,0,0H5Z"/><path class="cls-5" d="M4.94,6.82h0Z"/><path class="cls-4" d="M6.68,4.39h0Z"/><path class="cls-2" d="M7.17,6.38v0L7,6.65v0H7l0,0c0,.07-.07.15-.11.22s-.09.17-.13.26a.05.05,0,0,0,0,0h0a.08.08,0,0,0,0,0h0V5.55a.2.2,0,0,1,0-.07h.92l0,0-.11.23c-.06.1-.1.2-.15.3s-.1.18-.14.27v0Z"/><path class="cls-15" d="M8.35,4.13a.05.05,0,0,0,0,0h0l0,0h0a.05.05,0,0,0,0,0s0,0,0,0,0,0,0,0h0s0,0,0,0l.12-.24h0V5.45H7.68s0,0,0,0h0l0-.05h0l0,0h0a.05.05,0,0,0,0,0h0l0,0h0a.05.05,0,0,0,0,0h0l0,0h0a.05.05,0,0,0,0,0h0s0,0,0,0A2.12,2.12,0,0,0,8,4.82l0-.05H8a.08.08,0,0,0,0,0h0s0,0,0,0h0l0,0h0s0,0,0,0h0a.08.08,0,0,0,0,0h0l0,0h0a.08.08,0,0,0,0,0h0s0,0,0,0h0a.08.08,0,0,0,0,0h0s0,0,0-.05h0a.08.08,0,0,0,0,0h0l0-.05Z"/><path class="cls-2" d="M8.35,3l-.12-.23-.16-.33C8,2.33,8,2.23,7.93,2.14s-.11-.2-.16-.3l-.09-.18h.88s0,0,0,0v1.8h0a1.74,1.74,0,0,1-.1-.19L8.36,3V3Z"/><path class="cls-15" d="M7.84,5.81c0-.09-.08-.18-.13-.27s0,0,0,0l0,0h.93v1.8h0L8.44,7l-.12-.23c-.05-.11-.11-.22-.17-.33S8.07,6.24,8,6.15l-.16-.32h0A0,0,0,0,0,7.84,5.81Z"/><path class="cls-12" d="M7.63,5.5h0S7.63,5.49,7.63,5.5Z"/><path class="cls-12" d="M7.68,5.45h0Z"/><path class="cls-12" d="M8.61,1.66s0,0,0,0h0S8.61,1.65,8.61,1.66Z"/><path class="cls-12" d="M8.61,5.49h0Z"/><path class="cls-12" d="M6.7,5.45h0S6.71,5.47,6.7,5.45Z"/><path class="cls-6" d="M7.73,1.63h0Z"/><path class="cls-12" d="M8.61,3.64h0v0h0S8.62,3.64,8.61,3.64Z"/><path class="cls-12" d="M6.69,7.28h0Z"/><path class="cls-12" d="M7.64,5.42h0Z"/><path class="cls-4" d="M8.65,7.28h0v0h0Z"/><path class="cls-6" d="M7.69,1.62h0Z"/><path class="cls-12" d="M6.73,7.24h0Z"/><path class="cls-12" d="M8.68,7.24h0Z"/><path class="cls-12" d="M7.7,5.52s0,0,0,0h0Z"/><path class="cls-12" d="M8,2.44H8Z"/><polygon class="cls-12" points="8.05 2.46 8.05 2.46 8.05 2.46 8.05 2.46"/><path class="cls-12" d="M8.07,2.49a0,0,0,0,1,0,0Z"/><path class="cls-12" d="M8.08,2.5h0Z"/><polygon class="cls-12" points="8.09 2.52 8.09 2.52 8.09 2.52 8.09 2.52"/><polygon class="cls-12" points="8.11 2.57 8.11 2.57 8.11 2.57 8.11 2.57"/><polygon class="cls-12" points="8.14 2.62 8.13 2.62 8.14 2.62 8.14 2.62"/><polygon class="cls-12" points="8.16 2.67 8.16 2.67 8.16 2.67 8.16 2.67"/><polygon class="cls-12" points="8.19 2.72 8.19 2.72 8.19 2.72 8.19 2.72"/><polygon class="cls-12" points="8.21 2.77 8.21 2.77 8.21 2.77 8.21 2.77"/><path class="cls-12" d="M8.24,2.81h0Z"/><path class="cls-12" d="M8.26,2.86Z"/><path class="cls-12" d="M8.29,2.91h0Z"/><path class="cls-12" d="M8.31,3Z"/><path class="cls-12" d="M8.35,3Z"/><path class="cls-12" d="M8.34,3h0Z"/><path class="cls-12" d="M8.36,3.06Z"/><polygon class="cls-12" points="8.37 3.08 8.37 3.08 8.37 3.08 8.37 3.08"/><path class="cls-12" d="M8.52,3.37h0S8.52,3.36,8.52,3.37Z"/><polygon class="cls-12" points="8.53 3.39 8.53 3.39 8.53 3.39 8.53 3.39"/><path class="cls-12" d="M8.55,3.42h0Z"/><polygon class="cls-12" points="8.55 3.44 8.55 3.44 8.55 3.44 8.55 3.44"/><path class="cls-12" d="M8.57,3.47s0,0,0,0Z"/><path class="cls-12" d="M8.6,3.47h0Z"/><path class="cls-12" d="M8.65,3.47Z"/><polygon class="cls-12" points="8.58 3.49 8.58 3.49 8.58 3.49 8.58 3.49"/><path class="cls-12" d="M8.6,3.52a0,0,0,0,1,0,0Z"/><polygon class="cls-12" points="8.61 3.54 8.6 3.54 8.6 3.54 8.61 3.54"/><path class="cls-12" d="M8.65,3.64Z"/><path class="cls-12" d="M8.45,3.93h0Z"/><path class="cls-12" d="M8.81,3.94Z"/><path class="cls-12" d="M8.43,4s0,0,0,0Z"/><path class="cls-12" d="M8.84,4h0Z"/><path class="cls-12" d="M8.4,4h0Z"/><path class="cls-12" d="M8.86,4Z"/><path class="cls-12" d="M8.38,4.08h0Z"/><path class="cls-12" d="M8.89,4.09Z"/><path class="cls-12" d="M8.35,4.13h0Z"/><path class="cls-12" d="M8.91,4.14Z"/><path class="cls-12" d="M8.33,4.18a0,0,0,0,1,0,0Z"/><path class="cls-12" d="M8.94,4.19h0Z"/><path class="cls-12" d="M8.32,4.2h0Z"/><polygon class="cls-12" points="8.3 4.22 8.31 4.22 8.3 4.22 8.3 4.22"/><polygon class="cls-12" points="8.28 4.27 8.28 4.27 8.28 4.27 8.28 4.27"/><path class="cls-12" d="M7,4.28Z"/><polygon class="cls-12" points="8.26 4.32 8.26 4.32 8.25 4.32 8.26 4.32"/><path class="cls-12" d="M7.17,4.55h0Z"/><path class="cls-12" d="M8.13,4.56h0Z"/><path class="cls-12" d="M7.19,4.6h0Z"/><path class="cls-12" d="M8.11,4.61h0Z"/><path class="cls-12" d="M7.22,4.65h0Z"/><path class="cls-12" d="M8.08,4.66h0Z"/><path class="cls-12" d="M7.26,4.67h0Z"/><path class="cls-12" d="M8,4.68H8Z"/><path class="cls-12" d="M7.24,4.7h0Z"/><path class="cls-12" d="M8.06,4.71h0Z"/><path class="cls-12" d="M7.27,4.75h0Z"/><path class="cls-12" d="M8,4.76H8Z"/><polygon class="cls-12" points="7.31 4.83 7.31 4.82 7.31 4.82 7.31 4.83"/><polygon class="cls-12" points="7.33 4.88 7.33 4.87 7.33 4.87 7.33 4.88"/><polygon class="cls-12" points="7.36 4.92 7.36 4.92 7.36 4.92 7.36 4.92"/><path class="cls-12" d="M7.41,5h0Z"/><polygon class="cls-12" points="7.39 4.97 7.38 4.97 7.38 4.97 7.39 4.97"/><path class="cls-12" d="M8.43.15h0Z"/><path class="cls-12" d="M8.16,4.51h0Z"/><path class="cls-12" d="M8.41.2h0Z"/><polygon class="cls-12" points="7.41 5.03 7.41 5.02 7.41 5.02 7.41 5.03"/><path class="cls-12" d="M8.4.21h0Z"/><path class="cls-12" d="M7.88,5.06h0A0,0,0,0,1,7.88,5.06Z"/><path class="cls-12" d="M8.25.5h0Z"/><path class="cls-12" d="M7.46,5.12h0Z"/><path class="cls-12" d="M7.85,5.11h0Z"/><path class="cls-12" d="M8.23.55a0,0,0,0,1,0,0Z"/><path class="cls-12" d="M7.49,5.17h0Z"/><path class="cls-12" d="M7.83,5.16h0Z"/><path class="cls-12" d="M7.51,5.22h0Z"/><path class="cls-12" d="M7.8,5.21h0Z"/><path class="cls-12" d="M8.2.6h0Z"/><path class="cls-12" d="M8.18.65a0,0,0,0,1,0,0Z"/><path class="cls-12" d="M7.54,5.27h0Z"/><path class="cls-12" d="M7.77,5.26s0,0,0,0Z"/><path class="cls-12" d="M7.56,5.32h0Z"/><path class="cls-12" d="M7.75,5.31s0,0,0,0Z"/><path class="cls-12" d="M8.15.7h0Z"/><path class="cls-12" d="M7.73,5.35Z"/><polygon class="cls-12" points="7.7 5.4 7.7 5.4 7.7 5.4 7.7 5.4"/><path class="cls-12" d="M8.13.75a0,0,0,0,1,0,0Z"/><path class="cls-12" d="M8.1.79Z"/><polygon class="cls-12" points="8.08 0.84 8.08 0.84 8.08 0.84 8.08 0.84"/><polygon class="cls-12" points="8.05 0.89 8.05 0.89 8.05 0.89 8.05 0.89"/><polygon class="cls-12" points="8.03 0.94 8.03 0.94 8.03 0.94 8.03 0.94"/><polygon class="cls-12" points="8 0.99 8.01 0.99 8 0.99 8 0.99"/><path class="cls-12" d="M7.14,4.5Z"/><polygon class="cls-12" points="8.18 4.47 8.18 4.47 8.18 4.47 8.18 4.47"/><path class="cls-12" d="M7.66,5.51h0Z"/><polygon class="cls-12" points="7.98 1.04 7.98 1.04 7.98 1.04 7.98 1.04"/><polygon class="cls-12" points="7.63 5.55 7.63 5.55 7.63 5.55 7.63 5.55"/><polygon class="cls-12" points="7.6 5.6 7.6 5.6 7.6 5.6 7.6 5.6"/><path class="cls-12" d="M7.58,5.64h0Z"/><polygon class="cls-12" points="7.73 5.64 7.73 5.64 7.73 5.64 7.73 5.64"/><path class="cls-12" d="M8,1.08H8Z"/><path class="cls-12" d="M7.74,5.67h0Z"/><path class="cls-12" d="M7.56,5.69h0Z"/><polygon class="cls-12" points="7.75 5.69 7.75 5.69 7.75 5.69 7.75 5.69"/><path class="cls-12" d="M7.77,5.72h0Z"/><path class="cls-12" d="M7.53,5.74h0Z"/><polygon class="cls-12" points="7.78 5.74 7.78 5.74 7.78 5.74 7.78 5.74"/><path class="cls-12" d="M7.93,1.13h0Z"/><path class="cls-12" d="M7.79,5.77h0Z"/><path class="cls-12" d="M7.51,5.79h0Z"/><polygon class="cls-12" points="7.8 5.79 7.8 5.79 7.8 5.79 7.8 5.79"/><path class="cls-12" d="M7.82,5.82s0,0,0,0Z"/><path class="cls-12" d="M7.84,5.81a0,0,0,0,1,0,0Z"/><path class="cls-12" d="M7.48,5.84h0Z"/><polygon class="cls-12" points="7.83 5.84 7.83 5.84 7.83 5.84 7.83 5.84"/><path class="cls-12" d="M7.84,5.87h0Z"/><path class="cls-12" d="M7.91,1.18h0Z"/><path class="cls-12" d="M7.45,5.89h0Z"/><polygon class="cls-12" points="7.85 5.89 7.85 5.89 7.85 5.89 7.85 5.89"/><polygon class="cls-12" points="7.89 5.95 7.88 5.95 7.88 5.95 7.89 5.95"/><path class="cls-12" d="M7.88,1.23h0Z"/><polygon class="cls-12" points="7.91 6 7.91 6 7.91 6 7.91 6"/><path class="cls-12" d="M7.84,1.24Z"/><polygon class="cls-12" points="7.94 6.05 7.93 6.05 7.93 6.05 7.94 6.05"/><polygon class="cls-12" points="7.96 6.1 7.96 6.1 7.96 6.1 7.96 6.1"/><polygon class="cls-12" points="7.99 6.15 7.98 6.15 7.99 6.15 7.99 6.15"/><path class="cls-12" d="M7.86,1.28h0Z"/><path class="cls-12" d="M7.3,6.2h0Z"/><polygon class="cls-12" points="8.01 6.2 8.01 6.2 8.01 6.2 8.01 6.2"/><polygon class="cls-12" points="8.2 4.42 8.21 4.42 8.2 4.42 8.2 4.42"/><polygon class="cls-12" points="7.29 6.22 7.29 6.22 7.28 6.22 7.29 6.22"/><path class="cls-12" d="M7.27,6.24h0Z"/><path class="cls-12" d="M8,6.25H8Z"/><polygon class="cls-12" points="7.26 6.27 7.26 6.27 7.26 6.27 7.26 6.27"/><path class="cls-12" d="M7.25,6.29h0Z"/><path class="cls-12" d="M8.06,6.3h0Z"/><polygon class="cls-12" points="7.24 6.32 7.24 6.32 7.23 6.32 7.24 6.32"/><path class="cls-12" d="M7.83,1.33h0Z"/><path class="cls-12" d="M7.22,6.34h0Z"/><path class="cls-12" d="M8.09,6.35h0Z"/><polygon class="cls-12" points="7.21 6.37 7.21 6.37 7.21 6.37 7.21 6.37"/><path class="cls-12" d="M7.17,6.38h0Z"/><path class="cls-12" d="M7.2,6.39a0,0,0,0,1,0,0Z"/><path class="cls-12" d="M8.11,6.4h0Z"/><polygon class="cls-12" points="7.18 6.42 7.18 6.42 7.18 6.42 7.18 6.42"/><path class="cls-12" d="M7.17,6.44h0Z"/><path class="cls-12" d="M8.14,6.45h0Z"/><polygon class="cls-12" points="7.16 6.47 7.16 6.47 7.16 6.47 7.16 6.47"/><path class="cls-12" d="M8.16,6.5h0Z"/><path class="cls-12" d="M8.17,6.51h0Z"/><polygon class="cls-12" points="7.13 6.53 7.13 6.53 7.13 6.53 7.13 6.53"/><polygon class="cls-12" points="7.1 6.58 7.1 6.58 7.1 6.58 7.1 6.58"/><polygon class="cls-12" points="7.08 6.63 7.08 6.63 7.08 6.63 7.08 6.63"/><path class="cls-12" d="M9,6.66H9Z"/><path class="cls-12" d="M7,6.67H7Z"/><polygon class="cls-12" points="7.05 6.68 7.05 6.68 7.05 6.68 7.05 6.68"/><path class="cls-12" d="M9,6.71Z"/><polygon class="cls-12" points="7.03 6.73 7.03 6.73 7.03 6.73 7.03 6.73"/><polygon class="cls-12" points="8.98 6.73 8.98 6.73 8.98 6.73 8.98 6.73"/><path class="cls-12" d="M7.69,1.74h0Z"/><path class="cls-12" d="M7,6.77H7Z"/><path class="cls-12" d="M9,6.77Z"/><path class="cls-12" d="M8.32,6.8h0Z"/><path class="cls-12" d="M7,6.82Z"/><polygon class="cls-12" points="8.33 6.82 8.33 6.82 8.33 6.82 8.33 6.82"/><path class="cls-12" d="M8.93,6.82Z"/><path class="cls-12" d="M7.71,1.79h0Z"/><path class="cls-12" d="M8.34,6.85h0Z"/><path class="cls-12" d="M7,6.87Z"/><polygon class="cls-12" points="8.35 6.87 8.35 6.87 8.35 6.87 8.35 6.87"/><path class="cls-12" d="M8.91,6.87Z"/><path class="cls-12" d="M8.37,6.9h0Z"/><path class="cls-12" d="M6.93,6.92Z"/><polygon class="cls-12" points="8.38 6.92 8.38 6.92 8.38 6.92 8.38 6.92"/><path class="cls-12" d="M8.88,6.92Z"/><path class="cls-12" d="M7.74,1.84h0Z"/><path class="cls-12" d="M8.4,7h0Z"/><path class="cls-12" d="M7.76,1.89h0Z"/><path class="cls-12" d="M6.9,7Z"/><polygon class="cls-12" points="8.4 6.97 8.4 6.97 8.4 6.97 8.4 6.97"/><path class="cls-12" d="M8.86,7Z"/><path class="cls-12" d="M8.42,7h0Z"/><path class="cls-12" d="M6.88,7Z"/><polygon class="cls-12" points="8.43 7.02 8.43 7.02 8.43 7.02 8.43 7.02"/><path class="cls-12" d="M8.83,7Z"/><path class="cls-12" d="M8.45,7.05h0Z"/><path class="cls-12" d="M8.45,7.06Z"/><polygon class="cls-12" points="8.46 7.08 8.46 7.08 8.46 7.08 8.46 7.08"/><polygon class="cls-12" points="8.49 7.13 8.49 7.13 8.49 7.13 8.49 7.13"/><polygon class="cls-12" points="8.51 7.18 8.51 7.18 8.51 7.18 8.51 7.18"/><path class="cls-12" d="M7.94,2.24h0Z"/><polygon class="cls-12" points="8.54 7.23 8.54 7.23 8.54 7.23 8.54 7.23"/><polygon class="cls-12" points="7.95 2.26 7.95 2.26 7.95 2.26 7.95 2.26"/><polygon class="cls-12" points="8.56 7.28 8.56 7.28 8.56 7.28 8.56 7.28"/><path class="cls-12" d="M8,2.29H8Z"/><path class="cls-12" d="M6.65,7.3h0Z"/><path class="cls-12" d="M8.61,7.3h0Z"/><polygon class="cls-12" points="7.98 2.31 7.98 2.31 7.98 2.31 7.98 2.31"/><path class="cls-12" d="M8.65,7.3Z"/><polygon class="cls-12" points="8.59 7.33 8.59 7.33 8.59 7.33 8.59 7.33"/><polygon class="cls-12" points="6.71 7.34 6.71 7.34 6.71 7.34 6.71 7.34"/><path class="cls-12" d="M8,2.34H8Z"/><polygon class="cls-12" points="8.23 4.37 8.23 4.37 8.23 4.37 8.23 4.37"/><polygon class="cls-12" points="8 2.36 8 2.36 8 2.36 8 2.36"/><path class="cls-12" d="M8,2.39a0,0,0,0,1,0,0Z"/><polygon class="cls-12" points="8.03 2.41 8.03 2.41 8.03 2.41 8.03 2.41"/><path class="cls-12" d="M10.57,3.64h0s0,0,0,0h0Z"/><path class="cls-12" d="M12.56,7.29h0S12.56,7.3,12.56,7.29Z"/><path class="cls-12" d="M11.55,5.42h0Z"/><path class="cls-12" d="M11.6,5.53h0Z"/><path class="cls-12" d="M10.74,3.29h0Z"/><polygon class="cls-12" points="10.71 3.34 10.71 3.34 10.71 3.34 10.71 3.34"/><path class="cls-12" d="M10.69,3.38h0Z"/><path class="cls-12" d="M10.66,3.43h0Z"/><path class="cls-12" d="M10.64,3.48h0Z"/><path class="cls-12" d="M10.61,3.53h0Z"/><path class="cls-12" d="M10.6,3.55h0Z"/><path class="cls-12" d="M10.54,3.68h0Z"/><path class="cls-12" d="M10.53,3.69h0Z"/><path class="cls-12" d="M10.51,3.73Z"/><path class="cls-12" d="M10.5,3.74h0Z"/><path class="cls-12" d="M10.49,3.78h0Z"/><path class="cls-12" d="M10.48,3.79h0Z"/><path class="cls-12" d="M10.46,3.83Z"/><path class="cls-12" d="M10.74,3.82h0Z"/><path class="cls-12" d="M10.45,3.84h0Z"/><path class="cls-12" d="M10.44,3.88h0Z"/><path class="cls-12" d="M10.43,3.89h0Z"/><path class="cls-12" d="M10.77,3.94h0Z"/><path class="cls-12" d="M10.79,4h0Z"/><path class="cls-12" d="M10.82,4h0Z"/><path class="cls-12" d="M10.84,4.09Z"/><path class="cls-12" d="M10.88,4.11h0Z"/><path class="cls-12" d="M10.87,4.14h0Z"/><path class="cls-12" d="M10.89,4.19Z"/><path class="cls-12" d="M10.27,4.2h0Z"/><path class="cls-12" d="M10.92,4.24h0Z"/><path class="cls-12" d="M10.93,4.25h0Z"/><path class="cls-12" d="M10.94,4.28Z"/><path class="cls-12" d="M11,4.3h0Z"/><path class="cls-12" d="M11.18,4.69Z"/><path class="cls-12" d="M11.2,4.79Z"/><path class="cls-12" d="M11.91,4.82h0Z"/><path class="cls-12" d="M11.89,4.85h0Z"/><path class="cls-12" d="M11.88,4.87h0Z"/><path class="cls-12" d="M11.87,4.9h0Z"/><path class="cls-12" d="M11.86,4.92h0Z"/><path class="cls-12" d="M11.84,5h0Z"/><path class="cls-12" d="M11.32,5h0Z"/><path class="cls-12" d="M11.83,5h0Z"/><path class="cls-12" d="M11.82,5h0Z"/><path class="cls-12" d="M11.81,5h0Z"/><path class="cls-12" d="M11.37,5.12h0Z"/><path class="cls-12" d="M11.39,5.17h0Z"/><path class="cls-12" d="M11.42,5.22h0Z"/><path class="cls-12" d="M11.45,5.27h0Z"/><path class="cls-12" d="M11.47,5.32h0Z"/><path class="cls-12" d="M11.49,5.36h0Z"/><path class="cls-12" d="M11.5,5.38h0Z"/><polygon class="cls-12" points="11.61 5.4 11.61 5.4 11.61 5.4 11.61 5.4"/><path class="cls-12" d="M11.52,5.41h0Z"/><path class="cls-12" d="M11.53,5.43h0Z"/><path class="cls-12" d="M11.05,4.5h0Z"/><path class="cls-12" d="M11,4.49h0Z"/><path class="cls-12" d="M11.57,5.51h0Z"/><path class="cls-12" d="M11,4.45h0Z"/><path class="cls-12" d="M11.58,5.53h0Z"/><path class="cls-12" d="M11.54,5.55Z"/><path class="cls-12" d="M11.59,5.56h0Z"/><path class="cls-12" d="M11.6,5.58h0Z"/><path class="cls-12" d="M11.51,5.6Z"/><path class="cls-12" d="M11.62,5.61a0,0,0,0,1,0,0Z"/><path class="cls-12" d="M11.5,5.62h0Z"/><path class="cls-12" d="M11.63,5.63h0Z"/><path class="cls-12" d="M11.49,5.64h0Z"/><path class="cls-12" d="M11.65,5.67h0Z"/><path class="cls-12" d="M11.46,5.69h0Z"/><path class="cls-12" d="M11.68,5.72h0Z"/><path class="cls-12" d="M11.44,5.74h0Z"/><path class="cls-12" d="M11.7,5.77h0Z"/><path class="cls-12" d="M11.41,5.79h0Z"/><path class="cls-12" d="M11.37,5.8Z"/><path class="cls-12" d="M11.73,5.82s0,0,0,0A0,0,0,0,1,11.73,5.82Z"/><path class="cls-12" d="M11.39,5.84h0Z"/><path class="cls-12" d="M11.75,5.87h0Z"/><path class="cls-12" d="M11.36,5.89h0Z"/><path class="cls-12" d="M11.78,5.92h0Z"/><path class="cls-12" d="M11.34,5.93h0Z"/><path class="cls-12" d="M11.79,5.94h0Z"/><path class="cls-12" d="M11.33,6h0Z"/><path class="cls-12" d="M11.8,6h0Z"/><path class="cls-12" d="M11.32,6h0Z"/><path class="cls-12" d="M11.31,6h0Z"/><path class="cls-12" d="M11.82,6Z"/><path class="cls-12" d="M11,4.44h0Z"/><path class="cls-12" d="M11.29,6h0Z"/><path class="cls-12" d="M11.28,6.05h0Z"/><path class="cls-12" d="M11.85,6.05h0Z"/><path class="cls-12" d="M11.27,6.08h0Z"/><path class="cls-12" d="M11.26,6.1h0Z"/><path class="cls-12" d="M11.87,6.1Z"/><path class="cls-12" d="M11.9,6.11h0Z"/><path class="cls-12" d="M11.24,6.13h0Z"/><path class="cls-12" d="M11.23,6.15h0Z"/><path class="cls-12" d="M11.9,6.15h0Z"/><path class="cls-12" d="M12,6.25h0Z"/><path class="cls-12" d="M12,6.3h0Z"/><path class="cls-12" d="M12,6.35h0Z"/><path class="cls-12" d="M12,6.4h0Z"/><path class="cls-12" d="M12.05,6.45h0Z"/><path class="cls-12" d="M12.07,6.5h0Z"/><path class="cls-12" d="M12.08,6.51h0Z"/><path class="cls-12" d="M12.1,6.54h0Z"/><path class="cls-12" d="M12.1,6.56h0Z"/><path class="cls-12" d="M12.12,6.59s0,0,0,0Z"/><path class="cls-12" d="M12.13,6.61h0Z"/><path class="cls-12" d="M12.15,6.64h0Z"/><path class="cls-12" d="M12.15,6.66h0Z"/><path class="cls-12" d="M11,4.4h0Z"/><path class="cls-12" d="M12.17,6.69h0Z"/><path class="cls-12" d="M12.18,6.71h0Z"/><path class="cls-12" d="M12.2,6.74h0Z"/><path class="cls-12" d="M12.2,6.76h0Z"/><path class="cls-12" d="M12.87,6.76h0Z"/><path class="cls-12" d="M12.23,6.8h0Z"/><path class="cls-12" d="M12.84,6.82Z"/><path class="cls-12" d="M12.25,6.85h0Z"/><path class="cls-12" d="M12.82,6.87h0Z"/><path class="cls-12" d="M12.28,6.9a0,0,0,0,1,0,0A0,0,0,0,1,12.28,6.9Z"/><path class="cls-12" d="M12.79,6.92Z"/><path class="cls-12" d="M12.3,7h0Z"/><path class="cls-12" d="M12.77,7h0Z"/><path class="cls-12" d="M12.33,7h0Z"/><path class="cls-12" d="M12.74,7Z"/><path class="cls-12" d="M12.35,7.05h0Z"/><path class="cls-12" d="M12.72,7.06h0Z"/><path class="cls-12" d="M12.37,7.08Z"/><path class="cls-12" d="M12.71,7.07h0Z"/><path class="cls-12" d="M12.69,7.11s0,0,0,0Z"/><path class="cls-12" d="M12.4,7.13h0Z"/><path class="cls-12" d="M12.68,7.12h0Z"/><path class="cls-12" d="M12.67,7.16h0Z"/><path class="cls-12" d="M12.42,7.18Z"/><path class="cls-12" d="M12.66,7.18Z"/><path class="cls-12" d="M12.64,7.21h0Z"/><path class="cls-12" d="M12.45,7.23h0Z"/><path class="cls-12" d="M12.63,7.22h0Z"/><path class="cls-12" d="M12.62,7.26h0Z"/><path class="cls-12" d="M12.47,7.28Z"/><path class="cls-12" d="M12.61,7.28Z"/><path class="cls-12" d="M12.51,7.3h0Z"/><path class="cls-12" d="M12.59,7.31h0Z"/><path class="cls-12" d="M12.5,7.33h0Z"/><path class="cls-12" d="M12.58,7.33Z"/><path class="cls-12" d="M12.51,7.36h0Z"/><path class="cls-12" d="M11,4.39h0Z"/><path class="cls-12" d="M11,4.35h0Z"/><path class="cls-12" d="M11,4.34h0Z"/><path class="cls-12" d="M11.92,6.2Z"/><path class="cls-9" d="M6.35,1.61a.31.31,0,0,1,.31-.31.32.32,0,0,1,.3.31.33.33,0,0,1,0,.14.37.37,0,0,1-.12.13.4.4,0,0,1-.15,0,.23.23,0,0,1-.14,0,.37.37,0,0,1-.13-.12A.35.35,0,0,1,6.35,1.61Zm.3.27h0a.26.26,0,0,0,.22-.3.25.25,0,0,0-.21-.23H6.64l-.12,0a.27.27,0,0,0,.13.51Z"/><path class="cls-2" d="M6.91,3.41h0Z"/><path class="cls-12" d="M11.55,1.69s0,0,0,0Z"/><polygon class="cls-12" points="11.94 2.41 11.94 2.41 11.94 2.41 11.94 2.41"/><path class="cls-12" d="M12,2.43h0Z"/><polygon class="cls-12" points="11.96 2.46 11.96 2.46 11.96 2.46 11.96 2.46"/><path class="cls-12" d="M12,2.48h0S12,2.49,12,2.48Z"/><path class="cls-12" d="M12,2.5h0Z"/><polygon class="cls-12" points="11.99 2.52 12 2.52 11.99 2.52 11.99 2.52"/><polygon class="cls-12" points="12.02 2.57 12.02 2.57 12.02 2.57 12.02 2.57"/><polygon class="cls-12" points="12.04 2.62 12.05 2.62 12.04 2.62 12.04 2.62"/><polygon class="cls-12" points="12.07 2.67 12.07 2.67 12.07 2.67 12.07 2.67"/><polygon class="cls-12" points="12.1 2.72 12.1 2.72 12.09 2.72 12.1 2.72"/><polygon class="cls-12" points="12.12 2.77 12.12 2.77 12.12 2.77 12.12 2.77"/><path class="cls-12" d="M12.13,2.79h0Z"/><path class="cls-12" d="M12.14,2.81h0Z"/><path class="cls-12" d="M12.17,2.86Z"/><path class="cls-12" d="M12.19,2.91h0Z"/><path class="cls-12" d="M12.22,3Z"/><path class="cls-12" d="M12.24,3h0Z"/><path class="cls-12" d="M12.27,3.06Z"/><polygon class="cls-12" points="12.28 3.08 12.28 3.08 12.28 3.08 12.28 3.08"/><path class="cls-12" d="M12.29,3.1h0Z"/><polygon class="cls-12" points="11.54 1.71 11.54 1.71 11.54 1.71 11.54 1.71"/><path class="cls-12" d="M11.53,1.74h0Z"/><path class="cls-12" d="M11.59,1.73h0Z"/><polygon class="cls-12" points="11.52 1.76 11.52 1.76 11.52 1.76 11.52 1.76"/><path class="cls-12" d="M11.5,1.79h0A0,0,0,0,1,11.5,1.79Z"/><path class="cls-12" d="M11.62,1.78h0Z"/><polygon class="cls-12" points="11.49 1.81 11.49 1.81 11.5 1.81 11.49 1.81"/><path class="cls-12" d="M11.64,1.83h0Z"/><path class="cls-12" d="M11.67,1.88h0Z"/><path class="cls-12" d="M11.69,1.93h0Z"/><path class="cls-12" d="M11.7,1.94h0Z"/><path class="cls-12" d="M11.85,2.23h0Z"/><polygon class="cls-12" points="11.86 2.26 11.86 2.26 11.86 2.26 11.86 2.26"/><path class="cls-12" d="M11.87,2.28h0A0,0,0,0,1,11.87,2.28Z"/><polygon class="cls-12" points="11.89 2.31 11.89 2.31 11.89 2.31 11.89 2.31"/><path class="cls-12" d="M11.9,2.33h0Z"/><polygon class="cls-12" points="11.91 2.36 11.91 2.36 11.91 2.36 11.91 2.36"/><path class="cls-12" d="M11.92,2.38h0S11.92,2.39,11.92,2.38Z"/><path class="cls-12" d="M11.57,1.6s0,0,0,0Z"/><path class="cls-12" d="M11.24,1a0,0,0,0,1,0,0h0S11.24,1,11.24,1Z"/><path class="cls-12" d="M10.94.4h0Z"/><path class="cls-12" d="M11.75,1.24Z"/><path class="cls-12" d="M11.38,1.26h0S11.39,1.26,11.38,1.26Z"/><path class="cls-12" d="M11.53,1.55Z"/><path class="cls-12" d="M11.59,1.66h0Z"/><path class="cls-12" d="M12.26,3h0Z"/><path class="cls-6" d="M12.52,1.62h0Z"/><path class="cls-6" d="M11.62,1.63h0Z"/><path class="cls-12" d="M12.06.71h0Z"/><path class="cls-12" d="M12,.76h0S12,.76,12,.76Z"/><path class="cls-12" d="M12,.78h0Z"/><polygon class="cls-12" points="12.01 0.79 12.01 0.79 12.01 0.79 12.01 0.79"/><polygon class="cls-12" points="11.99 0.84 11.99 0.84 11.99 0.84 11.99 0.84"/><polygon class="cls-12" points="11.96 0.89 11.96 0.89 11.96 0.89 11.96 0.89"/><polygon class="cls-12" points="11.94 0.94 11.94 0.94 11.94 0.94 11.94 0.94"/><polygon class="cls-12" points="11.91 0.99 11.91 0.99 11.91 0.99 11.91 0.99"/><polygon class="cls-12" points="11.89 1.04 11.89 1.04 11.89 1.04 11.89 1.04"/><path class="cls-12" d="M11.87,1.07h0A0,0,0,0,1,11.87,1.07Z"/><path class="cls-12" d="M11.86,1.09h0Z"/><path class="cls-12" d="M11.84,1.14h0Z"/><path class="cls-12" d="M11.81,1.19h0Z"/><path class="cls-12" d="M11.79,1.24h0Z"/><path class="cls-12" d="M11.76,1.29h0Z"/><path class="cls-12" d="M11.74,1.34h0Z"/><path class="cls-12" d="M11.53,1.63h0Z"/><path class="cls-12" d="M11,.5h0Z"/><path class="cls-12" d="M11,.55h0Z"/><path class="cls-12" d="M11,.6h0Z"/><path class="cls-12" d="M11,.65h0Z"/><path class="cls-12" d="M11.07.7h0Z"/><path class="cls-12" d="M11.09.75h0Z"/><path class="cls-12" d="M11.4,1.35h0Z"/><path class="cls-12" d="M11.53,1.61h0Z"/><path class="cls-15" d="M6.65,1.88a.27.27,0,0,1-.13-.51l.12,0h.07a.25.25,0,0,1,.21.23.26.26,0,0,1-.22.3Z"/></g></g></g></g></svg>